<svg xmlns="http://www.w3.org/2000/svg" xmlns:xlink="http://www.w3.org/1999/xlink" width="2000" zoomAndPan="magnify" viewBox="0 0 1500 1499.999933" height="2000" preserveAspectRatio="xMidYMid meet" version="1.0"><defs><g/><clipPath id="46e0ed4b5b"><path d="M 339.65625 715.910156 L 667.363281 715.910156 L 667.363281 1053.304688 L 339.65625 1053.304688 Z M 339.65625 715.910156 " clip-rule="nonzero"/></clipPath><clipPath id="6a9fd226b3"><path d="M 0.65625 0.910156 L 328.363281 0.910156 L 328.363281 338.304688 L 0.65625 338.304688 Z M 0.65625 0.910156 " clip-rule="nonzero"/></clipPath><clipPath id="339e179d06"><rect x="0" width="329" y="0" height="339"/></clipPath><clipPath id="bbe1ac99e9"><path d="M 829.296875 446.695312 L 1157.003906 446.695312 L 1157.003906 784.085938 L 829.296875 784.085938 Z M 829.296875 446.695312 " clip-rule="nonzero"/></clipPath><clipPath id="156cdedacd"><path d="M 0.296875 0.695312 L 328.003906 0.695312 L 328.003906 338.085938 L 0.296875 338.085938 Z M 0.296875 0.695312 " clip-rule="nonzero"/></clipPath><clipPath id="2eaea0da27"><rect x="0" width="329" y="0" height="339"/></clipPath><clipPath id="dad15d6dd1"><path d="M 339.65625 446.695312 L 1161 446.695312 L 1161 1053.304688 L 339.65625 1053.304688 Z M 339.65625 446.695312 " clip-rule="nonzero"/></clipPath><clipPath id="117442d5a0"><path d="M 564.65625 446.695312 L 935.34375 446.695312 C 995.019531 446.695312 1052.25 470.402344 1094.445312 512.597656 C 1136.640625 554.792969 1160.34375 612.023438 1160.34375 671.695312 L 1160.34375 828.304688 C 1160.34375 887.976562 1136.640625 945.207031 1094.445312 987.402344 C 1052.25 1029.597656 995.019531 1053.304688 935.34375 1053.304688 L 564.65625 1053.304688 C 504.980469 1053.304688 447.75 1029.597656 405.554688 987.402344 C 363.359375 945.207031 339.65625 887.976562 339.65625 828.304688 L 339.65625 671.695312 C 339.65625 612.023438 363.359375 554.792969 405.554688 512.597656 C 447.75 470.402344 504.980469 446.695312 564.65625 446.695312 Z M 564.65625 446.695312 " clip-rule="nonzero"/></clipPath><clipPath id="016158c381"><path d="M 0.65625 0.695312 L 821 0.695312 L 821 607.304688 L 0.65625 607.304688 Z M 0.65625 0.695312 " clip-rule="nonzero"/></clipPath><clipPath id="2d800d6a26"><path d="M 225.65625 0.695312 L 596.34375 0.695312 C 656.019531 0.695312 713.25 24.402344 755.445312 66.597656 C 797.640625 108.792969 821.34375 166.023438 821.34375 225.695312 L 821.34375 382.304688 C 821.34375 441.976562 797.640625 499.207031 755.445312 541.402344 C 713.25 583.597656 656.019531 607.304688 596.34375 607.304688 L 225.65625 607.304688 C 165.980469 607.304688 108.75 583.597656 66.554688 541.402344 C 24.359375 499.207031 0.65625 441.976562 0.65625 382.304688 L 0.65625 225.695312 C 0.65625 166.023438 24.359375 108.792969 66.554688 66.597656 C 108.75 24.402344 165.980469 0.695312 225.65625 0.695312 Z M 225.65625 0.695312 " clip-rule="nonzero"/></clipPath><clipPath id="0eacb019b8"><rect x="0" width="822" y="0" height="608"/></clipPath><clipPath id="c5e8567102"><path d="M 848 577 L 957 577 L 957 647 L 848 647 Z M 848 577 " clip-rule="nonzero"/></clipPath><clipPath id="bad6f2dab8"><path d="M 929.816406 541.675781 L 971.664062 594.636719 L 871.039062 674.148438 L 829.191406 621.1875 Z M 929.816406 541.675781 " clip-rule="nonzero"/></clipPath><clipPath id="46a4b04336"><path d="M 929.816406 541.675781 L 971.664062 594.636719 L 871.039062 674.148438 L 829.191406 621.1875 Z M 929.816406 541.675781 " clip-rule="nonzero"/></clipPath><clipPath id="270ab4f6de"><path d="M 902 606 L 932 606 L 932 611 L 902 611 Z M 902 606 " clip-rule="nonzero"/></clipPath><clipPath id="8a552bcf29"><path d="M 929.816406 541.675781 L 971.664062 594.636719 L 871.039062 674.148438 L 829.191406 621.1875 Z M 929.816406 541.675781 " clip-rule="nonzero"/></clipPath><clipPath id="f55a4b49a8"><path d="M 929.816406 541.675781 L 971.664062 594.636719 L 871.039062 674.148438 L 829.191406 621.1875 Z M 929.816406 541.675781 " clip-rule="nonzero"/></clipPath><clipPath id="9fef37a104"><path d="M 902 585 L 915 585 L 915 609 L 902 609 Z M 902 585 " clip-rule="nonzero"/></clipPath><clipPath id="285d27491e"><path d="M 929.816406 541.675781 L 971.664062 594.636719 L 871.039062 674.148438 L 829.191406 621.1875 Z M 929.816406 541.675781 " clip-rule="nonzero"/></clipPath><clipPath id="d3b4748acb"><path d="M 929.816406 541.675781 L 971.664062 594.636719 L 871.039062 674.148438 L 829.191406 621.1875 Z M 929.816406 541.675781 " clip-rule="nonzero"/></clipPath><clipPath id="0e3f3fa2bf"><path d="M 875 623 L 917 623 L 917 629 L 875 629 Z M 875 623 " clip-rule="nonzero"/></clipPath><clipPath id="dddfb7260c"><path d="M 929.816406 541.675781 L 971.664062 594.636719 L 871.039062 674.148438 L 829.191406 621.1875 Z M 929.816406 541.675781 " clip-rule="nonzero"/></clipPath><clipPath id="1df41c462f"><path d="M 929.816406 541.675781 L 971.664062 594.636719 L 871.039062 674.148438 L 829.191406 621.1875 Z M 929.816406 541.675781 " clip-rule="nonzero"/></clipPath><clipPath id="b540c9d582"><path d="M 875 586 L 894 586 L 894 626 L 875 626 Z M 875 586 " clip-rule="nonzero"/></clipPath><clipPath id="7ba1ac3fcc"><path d="M 929.816406 541.675781 L 971.664062 594.636719 L 871.039062 674.148438 L 829.191406 621.1875 Z M 929.816406 541.675781 " clip-rule="nonzero"/></clipPath><clipPath id="5949a78896"><path d="M 929.816406 541.675781 L 971.664062 594.636719 L 871.039062 674.148438 L 829.191406 621.1875 Z M 929.816406 541.675781 " clip-rule="nonzero"/></clipPath><clipPath id="2788756087"><path d="M 863 573 L 959 573 L 959 641 L 863 641 Z M 863 573 " clip-rule="nonzero"/></clipPath><clipPath id="b9271ee546"><path d="M 929.816406 541.675781 L 971.664062 594.636719 L 871.039062 674.148438 L 829.191406 621.1875 Z M 929.816406 541.675781 " clip-rule="nonzero"/></clipPath><clipPath id="a6c1017f0a"><path d="M 929.816406 541.675781 L 971.664062 594.636719 L 871.039062 674.148438 L 829.191406 621.1875 Z M 929.816406 541.675781 " clip-rule="nonzero"/></clipPath><clipPath id="46b7696360"><rect x="0" width="294" y="0" height="504"/></clipPath></defs><g clip-path="url(#46e0ed4b5b)"><g transform="matrix(1, 0, 0, 1, 339, 715)"><g clip-path="url(#339e179d06)"><g clip-path="url(#6a9fd226b3)"><path fill="#124828" d="M 0.65625 0.910156 L 328.363281 0.910156 L 328.363281 338.859375 L 0.65625 338.859375 Z M 0.65625 0.910156 " fill-opacity="1" fill-rule="nonzero"/></g></g></g></g><g clip-path="url(#bbe1ac99e9)"><g transform="matrix(1, 0, 0, 1, 829, 446)"><g clip-path="url(#2eaea0da27)"><g clip-path="url(#156cdedacd)"><path fill="#124828" d="M 0.296875 0.695312 L 328.003906 0.695312 L 328.003906 338.644531 L 0.296875 338.644531 Z M 0.296875 0.695312 " fill-opacity="1" fill-rule="nonzero"/></g></g></g></g><g clip-path="url(#dad15d6dd1)"><g clip-path="url(#117442d5a0)"><g transform="matrix(1, 0, 0, 1, 339, 446)"><g clip-path="url(#0eacb019b8)"><g clip-path="url(#016158c381)"><g clip-path="url(#2d800d6a26)"><path fill="#124828" d="M 0.65625 0.695312 L 820.523438 0.695312 L 820.523438 607.304688 L 0.65625 607.304688 Z M 0.65625 0.695312 " fill-opacity="1" fill-rule="nonzero"/></g></g></g></g></g></g><g clip-path="url(#c5e8567102)"><g clip-path="url(#bad6f2dab8)"><g clip-path="url(#46a4b04336)"><path fill="#eeebe6" d="M 849.167969 643.488281 C 854.65625 638.773438 858.308594 635.769531 863.328125 631.902344 C 864.453125 631.035156 867.734375 628.847656 872.976562 625.351562 C 877.875 622.082031 884.566406 617.613281 893.007812 611.894531 C 898.769531 607.988281 903.640625 604.941406 907.503906 602.585938 C 921.335938 594.152344 938.679688 585.085938 954.339844 577.84375 C 955.230469 577.429688 956.285156 577.820312 956.695312 578.707031 C 957.105469 579.597656 956.71875 580.652344 955.828125 581.0625 C 940.265625 588.257812 923.046875 597.265625 909.351562 605.613281 C 905.519531 607.949219 900.699219 610.964844 894.996094 614.832031 C 886.546875 620.558594 879.847656 625.03125 874.945312 628.300781 C 869.613281 631.859375 866.492188 633.941406 865.492188 634.714844 C 860.535156 638.535156 856.929688 641.496094 851.476562 646.179688 C 850.734375 646.816406 849.613281 646.730469 848.976562 645.988281 C 848.339844 645.246094 848.421875 644.125 849.167969 643.488281 Z M 849.167969 643.488281 " fill-opacity="1" fill-rule="nonzero"/></g></g></g><g clip-path="url(#270ab4f6de)"><g clip-path="url(#8a552bcf29)"><g clip-path="url(#f55a4b49a8)"><path fill="#eeebe6" d="M 904.421875 606.066406 C 905.644531 606.171875 906.75 606.269531 907.792969 606.363281 C 908.710938 606.445312 909.558594 606.519531 910.382812 606.589844 C 916.238281 607.089844 920.257812 607.273438 930.082031 606.667969 C 931.058594 606.609375 931.902344 607.351562 931.960938 608.332031 C 932.023438 609.308594 931.277344 610.148438 930.300781 610.210938 C 920.304688 610.828125 916.113281 610.640625 910.078125 610.125 C 909.246094 610.054688 908.398438 609.980469 907.480469 609.898438 C 906.433594 609.804688 905.335938 609.707031 904.121094 609.601562 C 903.144531 609.519531 902.421875 608.660156 902.503906 607.683594 C 902.585938 606.707031 903.445312 605.984375 904.421875 606.066406 Z M 904.421875 606.066406 " fill-opacity="1" fill-rule="nonzero"/></g></g></g><g clip-path="url(#9fef37a104)"><g clip-path="url(#285d27491e)"><g clip-path="url(#d3b4748acb)"><path fill="#eeebe6" d="M 902.566406 606.335938 L 902.570312 606.320312 L 902.566406 606.335938 C 902.773438 605.707031 903.0625 604.84375 903.53125 603.839844 C 905.402344 599.847656 910.890625 587.683594 911.292969 586.53125 C 911.617188 585.609375 912.628906 585.121094 913.554688 585.445312 C 914.476562 585.769531 914.964844 586.78125 914.640625 587.707031 C 914.160156 589.074219 908.570312 601.445312 906.746094 605.34375 C 906.367188 606.148438 906.132812 606.84375 905.9375 607.441406 L 905.933594 607.457031 C 905.632812 608.371094 904.628906 608.878906 903.699219 608.574219 C 902.769531 608.269531 902.261719 607.265625 902.566406 606.335938 Z M 902.566406 606.335938 " fill-opacity="1" fill-rule="nonzero"/></g></g></g><g clip-path="url(#0e3f3fa2bf)"><g clip-path="url(#dddfb7260c)"><g clip-path="url(#1df41c462f)"><path fill="#eeebe6" d="M 916.464844 624.1875 C 916.09375 623.71875 915.492188 623.445312 914.851562 623.527344 C 903.109375 624.992188 890.609375 625.0625 877.355469 623.734375 C 876.378906 623.636719 875.511719 624.351562 875.414062 625.324219 C 875.363281 625.800781 875.511719 626.253906 875.785156 626.601562 C 876.074219 626.964844 876.503906 627.214844 877 627.265625 C 890.519531 628.617188 903.285156 628.546875 915.292969 627.046875 C 916.265625 626.925781 916.953125 626.039062 916.832031 625.066406 C 916.789062 624.734375 916.660156 624.433594 916.464844 624.1875 Z M 916.464844 624.1875 " fill-opacity="1" fill-rule="nonzero"/></g></g></g><g clip-path="url(#b540c9d582)"><g clip-path="url(#7ba1ac3fcc)"><g clip-path="url(#5949a78896)"><path fill="#eeebe6" d="M 892.625 587.085938 C 892.425781 586.832031 892.152344 586.632812 891.828125 586.515625 C 890.90625 586.1875 889.890625 586.667969 889.5625 587.589844 C 886.402344 596.457031 884.492188 601.714844 883.832031 603.363281 C 883.8125 603.414062 883.792969 603.46875 883.777344 603.523438 C 883.566406 604.210938 881.382812 609.703125 877.226562 619.996094 C 877.226562 620 877.222656 620.007812 877.21875 620.011719 C 876.46875 621.929688 876.039062 623.140625 875.929688 623.640625 L 875.925781 623.640625 C 875.898438 623.769531 875.878906 623.890625 875.871094 624.003906 C 875.835938 624.46875 875.980469 624.902344 876.246094 625.242188 C 876.542969 625.617188 876.988281 625.871094 877.503906 625.910156 C 878.441406 625.984375 879.265625 625.3125 879.394531 624.390625 C 879.480469 624.046875 879.851562 623.023438 880.515625 621.324219 C 884.605469 611.203125 886.816406 605.636719 887.148438 604.625 C 887.84375 602.878906 889.761719 597.597656 892.902344 588.78125 C 893.117188 588.183594 892.988281 587.546875 892.625 587.085938 Z M 892.625 587.085938 " fill-opacity="1" fill-rule="nonzero"/></g></g></g><g clip-path="url(#2788756087)"><g clip-path="url(#b9271ee546)"><g clip-path="url(#a6c1017f0a)"><path fill="#eeebe6" d="M 866.265625 631.667969 C 862.421875 620.742188 862.324219 610.507812 865.246094 600.789062 C 867.730469 592.535156 872.984375 585.34375 882.007812 580.011719 C 900.734375 568.949219 952.625 573.476562 957.792969 577.257812 L 957.761719 577.234375 L 957.761719 577.238281 L 957.828125 577.285156 L 957.792969 577.257812 C 958.019531 577.425781 958.316406 577.679688 958.535156 578.054688 C 958.878906 578.636719 958.972656 579.40625 958.589844 580.125 C 952.050781 592.394531 943.527344 607.425781 938.414062 615.363281 C 933.40625 623.140625 928.410156 629.207031 923.0625 633.0625 C 916.769531 637.605469 909.574219 640.199219 901.640625 640.804688 C 888.917969 641.773438 872.671875 637 866.640625 633.410156 C 865.800781 632.910156 865.523438 631.820312 866.023438 630.980469 C 866.527344 630.136719 867.613281 629.859375 868.457031 630.363281 C 873.867188 633.582031 889.390625 638.179688 901.375 637.265625 C 908.671875 636.710938 915.238281 634.332031 920.988281 630.1875 C 925.800781 626.710938 930.511719 621.082031 935.433594 613.441406 C 940.46875 605.628906 948.933594 590.699219 955.460938 578.457031 C 955.191406 578.960938 955.273438 579.507812 955.480469 579.859375 C 955.597656 580.058594 955.71875 580.136719 955.699219 580.121094 L 955.660156 580.09375 L 955.726562 580.144531 L 955.699219 580.121094 C 951.828125 577.292969 901.492188 572.621094 883.8125 583.066406 C 875.546875 587.949219 870.867188 594.417969 868.644531 601.8125 C 865.945312 610.792969 866.011719 620.253906 869.609375 630.492188 C 869.9375 631.414062 869.449219 632.425781 868.527344 632.753906 C 867.601562 633.078125 866.589844 632.589844 866.265625 631.667969 Z M 866.265625 631.667969 " fill-opacity="1" fill-rule="nonzero"/></g></g></g><g transform="matrix(1, 0, 0, 1, 568, 498)"><g clip-path="url(#46b7696360)"><g fill="#eeebe6" fill-opacity="1"><g transform="translate(42.54961, 374.792784)"><g><path d="M 133.046875 -276.28125 C 128.734375 -276.28125 124.109375 -275.382812 119.171875 -273.59375 C 114.234375 -271.8125 109.296875 -269.316406 104.359375 -266.109375 C 99.429688 -262.898438 94.65625 -259.039062 90.03125 -254.53125 C 85.40625 -250.03125 81.332031 -245.128906 77.8125 -239.828125 C 74.300781 -234.523438 71.492188 -228.847656 69.390625 -222.796875 C 67.296875 -216.753906 66.25 -210.585938 66.25 -204.296875 C 66.25 -195.785156 67.484375 -187.953125 69.953125 -180.796875 C 72.421875 -173.640625 75.472656 -166.789062 79.109375 -160.25 C 82.742188 -153.71875 86.691406 -147.332031 90.953125 -141.09375 C 95.210938 -134.863281 99.160156 -128.414062 102.796875 -121.75 C 106.429688 -115.09375 109.484375 -108 111.953125 -100.46875 C 114.421875 -92.945312 115.65625 -84.75 115.65625 -75.875 C 115.65625 -65.382812 114.546875 -55.265625 112.328125 -45.515625 C 110.109375 -35.773438 106.929688 -26.617188 102.796875 -18.046875 C 98.660156 -9.472656 93.722656 -1.640625 87.984375 5.453125 C 82.253906 12.546875 75.84375 18.625 68.75 23.6875 C 61.65625 28.75 54.003906 32.695312 45.796875 35.53125 C 37.597656 38.363281 29.054688 39.78125 20.171875 39.78125 C 9.929688 39.78125 1.234375 38.175781 -5.921875 34.96875 C -13.078125 31.757812 -18.96875 27.71875 -23.59375 22.84375 C -28.21875 17.976562 -31.578125 12.707031 -33.671875 7.03125 C -35.773438 1.351562 -36.828125 -4.007812 -36.828125 -9.0625 C -36.828125 -17.695312 -35.375 -25.128906 -32.46875 -31.359375 C -29.570312 -37.597656 -25.929688 -42.6875 -21.546875 -46.625 C -17.171875 -50.570312 -12.484375 -53.503906 -7.484375 -55.421875 C -2.492188 -57.335938 2.160156 -58.296875 6.484375 -58.296875 C 8.203125 -58.296875 9.492188 -57.707031 10.359375 -56.53125 C 11.222656 -55.363281 11.65625 -54.097656 11.65625 -52.734375 C 11.65625 -50.640625 10.789062 -48.757812 9.0625 -47.09375 C 7.34375 -45.425781 5.429688 -43.296875 3.328125 -40.703125 C 1.234375 -38.117188 -0.675781 -34.695312 -2.40625 -30.4375 C -4.132812 -26.1875 -5 -20.484375 -5 -13.328125 C -5 -8.765625 -4.285156 -4.265625 -2.859375 0.171875 C -1.441406 4.617188 0.710938 8.566406 3.609375 12.015625 C 6.503906 15.472656 10.140625 18.25 14.515625 20.34375 C 18.898438 22.445312 24.054688 23.5 29.984375 23.5 C 36.390625 23.5 42.707031 22.109375 48.9375 19.328125 C 55.175781 16.554688 60.757812 12.578125 65.6875 7.390625 C 70.625 2.210938 74.601562 -4.101562 77.625 -11.5625 C 80.644531 -19.03125 82.15625 -27.453125 82.15625 -36.828125 C 82.15625 -44.472656 80.953125 -52.023438 78.546875 -59.484375 C 76.148438 -66.953125 73.160156 -74.351562 69.578125 -81.6875 C 66.003906 -89.03125 62.117188 -96.3125 57.921875 -103.53125 C 53.722656 -110.75 49.832031 -118 46.25 -125.28125 C 42.675781 -132.5625 39.6875 -139.835938 37.28125 -147.109375 C 34.875 -154.390625 33.671875 -161.796875 33.671875 -169.328125 C 33.671875 -178.078125 35.117188 -187.171875 38.015625 -196.609375 C 40.921875 -206.046875 44.898438 -215.269531 49.953125 -224.28125 C 55.015625 -233.289062 61.0625 -241.863281 68.09375 -250 C 75.125 -258.144531 82.769531 -265.300781 91.03125 -271.46875 C 99.300781 -277.632812 108.0625 -282.503906 117.3125 -286.078125 C 126.570312 -289.660156 135.953125 -291.453125 145.453125 -291.453125 C 151.617188 -291.453125 156.738281 -290.554688 160.8125 -288.765625 C 164.882812 -286.984375 168.125 -284.671875 170.53125 -281.828125 C 172.9375 -278.992188 174.597656 -275.753906 175.515625 -272.109375 C 176.441406 -268.472656 176.90625 -264.804688 176.90625 -261.109375 C 176.90625 -254.566406 176.007812 -248.488281 174.21875 -242.875 C 172.4375 -237.257812 170.125 -232.203125 167.28125 -227.703125 C 164.445312 -223.203125 161.300781 -219.222656 157.84375 -215.765625 C 154.394531 -212.316406 151.003906 -209.421875 147.671875 -207.078125 C 144.335938 -204.734375 141.222656 -202.972656 138.328125 -201.796875 C 135.429688 -200.628906 133.179688 -200.046875 131.578125 -200.046875 C 129.847656 -200.046875 128.640625 -200.226562 127.953125 -200.59375 C 127.273438 -200.96875 126.9375 -202.203125 126.9375 -204.296875 C 127.4375 -207.992188 128.796875 -212 131.015625 -216.3125 C 133.234375 -220.632812 135.578125 -225.109375 138.046875 -229.734375 C 140.515625 -234.367188 142.703125 -239.148438 144.609375 -244.078125 C 146.523438 -249.015625 147.484375 -253.953125 147.484375 -258.890625 C 147.484375 -260.617188 147.265625 -262.5 146.828125 -264.53125 C 146.398438 -266.5625 145.660156 -268.441406 144.609375 -270.171875 C 143.566406 -271.898438 142.117188 -273.347656 140.265625 -274.515625 C 138.421875 -275.691406 136.015625 -276.28125 133.046875 -276.28125 Z M 133.046875 -276.28125 "/></g></g><g transform="translate(192.256693, 374.792784)"><g><path d="M 98.453125 -217.625 C 97.585938 -216.019531 96.132812 -213.273438 94.09375 -209.390625 C 92.0625 -205.503906 89.625 -200.785156 86.78125 -195.234375 C 83.945312 -189.679688 80.800781 -183.476562 77.34375 -176.625 C 73.894531 -169.78125 70.320312 -162.597656 66.625 -155.078125 C 72.175781 -155.441406 77.203125 -155.835938 81.703125 -156.265625 C 86.203125 -156.703125 89.441406 -156.921875 91.421875 -156.921875 C 92.035156 -156.921875 92.492188 -156.703125 92.796875 -156.265625 C 93.109375 -155.835938 93.265625 -155.316406 93.265625 -154.703125 C 93.265625 -153.710938 92.984375 -152.660156 92.421875 -151.546875 C 91.867188 -150.441406 91.410156 -149.582031 91.046875 -148.96875 C 89.566406 -146.75 87.992188 -144.4375 86.328125 -142.03125 C 84.660156 -139.625 82.898438 -137.367188 81.046875 -135.265625 C 79.203125 -133.171875 77.289062 -131.382812 75.3125 -129.90625 C 73.34375 -128.425781 71.25 -127.5625 69.03125 -127.3125 C 65.082031 -126.570312 59.773438 -126.570312 53.109375 -127.3125 C 50.023438 -121.019531 47.03125 -114.757812 44.125 -108.53125 C 41.226562 -102.300781 38.515625 -96.347656 35.984375 -90.671875 C 33.460938 -84.992188 31.179688 -79.65625 29.140625 -74.65625 C 27.109375 -69.664062 25.351562 -65.257812 23.875 -61.4375 C 20.414062 -51.8125 17.453125 -43.632812 14.984375 -36.90625 C 12.515625 -30.1875 11.28125 -24.300781 11.28125 -19.25 C 11.28125 -16.039062 12.175781 -13.414062 13.96875 -11.375 C 15.757812 -9.34375 18.8125 -8.328125 23.125 -8.328125 C 25.96875 -8.328125 29.453125 -9.960938 33.578125 -13.234375 C 37.710938 -16.503906 42 -20.789062 46.4375 -26.09375 C 50.882812 -31.394531 55.265625 -37.375 59.578125 -44.03125 C 63.898438 -50.695312 67.664062 -57.363281 70.875 -64.03125 C 71.863281 -66 72.972656 -66.984375 74.203125 -66.984375 C 75.066406 -66.984375 75.804688 -66.738281 76.421875 -66.25 C 77.035156 -65.757812 77.34375 -65.019531 77.34375 -64.03125 C 77.34375 -63.289062 77.097656 -62.425781 76.609375 -61.4375 C 72.171875 -51.6875 67.296875 -42.523438 61.984375 -33.953125 C 56.679688 -25.378906 51.191406 -17.914062 45.515625 -11.5625 C 39.847656 -5.207031 34.082031 -0.179688 28.21875 3.515625 C 22.363281 7.210938 16.597656 9.0625 10.921875 9.0625 C 2.898438 9.0625 -2.863281 6.84375 -6.375 2.40625 C -9.894531 -2.03125 -11.65625 -8.507812 -11.65625 -17.03125 C -11.65625 -23.195312 -11.003906 -29.859375 -9.703125 -37.015625 C -8.410156 -44.171875 -6.347656 -52.25 -3.515625 -61.25 C -0.679688 -70.257812 3.078125 -80.4375 7.765625 -91.78125 C 12.453125 -103.132812 18.191406 -116.148438 24.984375 -130.828125 C 22.140625 -131.441406 19.421875 -131.992188 16.828125 -132.484375 C 14.242188 -132.984375 11.90625 -133.539062 9.8125 -134.15625 C 8.332031 -134.53125 7.160156 -134.78125 6.296875 -134.90625 C 5.429688 -135.03125 5 -135.398438 5 -136.015625 C 5 -137.367188 5.398438 -138.597656 6.203125 -139.703125 C 7.003906 -140.816406 8.082031 -142.113281 9.4375 -143.59375 C 10.050781 -144.582031 10.820312 -145.753906 11.75 -147.109375 C 12.675781 -148.472656 13.816406 -149.335938 15.171875 -149.703125 C 16.160156 -149.953125 18.472656 -150.320312 22.109375 -150.8125 C 25.753906 -151.3125 30.289062 -151.929688 35.71875 -152.671875 C 40.894531 -163.398438 46.503906 -174.835938 52.546875 -186.984375 C 58.597656 -199.140625 65.320312 -212.375 72.71875 -226.6875 C 74.082031 -229.28125 75.503906 -231.78125 76.984375 -234.1875 C 78.460938 -236.59375 79.941406 -238.71875 81.421875 -240.5625 C 82.898438 -242.414062 84.347656 -243.894531 85.765625 -245 C 87.191406 -246.113281 88.519531 -246.671875 89.75 -246.671875 C 91.226562 -246.671875 92.644531 -245.960938 94 -244.546875 C 95.363281 -243.128906 96.503906 -241.367188 97.421875 -239.265625 C 98.347656 -237.171875 99.085938 -234.984375 99.640625 -232.703125 C 100.203125 -230.421875 100.484375 -228.414062 100.484375 -226.6875 C 100.484375 -224.34375 100.296875 -222.519531 99.921875 -221.21875 C 99.554688 -219.925781 99.066406 -218.726562 98.453125 -217.625 Z M 98.453125 -217.625 "/></g></g></g></g></g></svg>