<svg xmlns="http://www.w3.org/2000/svg" xmlns:xlink="http://www.w3.org/1999/xlink" width="2000" zoomAndPan="magnify" viewBox="0 0 1500 1499.999933" height="2000" preserveAspectRatio="xMidYMid meet" version="1.0"><defs><g/><clipPath id="8205905232"><path d="M 0 492.695312 L 598.960938 492.695312 L 598.960938 1109.359375 L 0 1109.359375 Z M 0 492.695312 " clip-rule="nonzero"/></clipPath><clipPath id="3db03e85b6"><path d="M 0 0.695312 L 598.960938 0.695312 L 598.960938 617.359375 L 0 617.359375 Z M 0 0.695312 " clip-rule="nonzero"/></clipPath><clipPath id="14f2964c49"><rect x="0" width="599" y="0" height="618"/></clipPath><clipPath id="1b14a64b65"><path d="M 894.933594 0.640625 L 1493.898438 0.640625 L 1493.898438 617.304688 L 894.933594 617.304688 Z M 894.933594 0.640625 " clip-rule="nonzero"/></clipPath><clipPath id="49dfe722ce"><path d="M 0.933594 0.640625 L 599.898438 0.640625 L 599.898438 617.304688 L 0.933594 617.304688 Z M 0.933594 0.640625 " clip-rule="nonzero"/></clipPath><clipPath id="2895761337"><rect x="0" width="600" y="0" height="618"/></clipPath><clipPath id="92655dd3ed"><path d="M 0 0.601562 L 1500 0.601562 L 1500 1109.359375 L 0 1109.359375 Z M 0 0.601562 " clip-rule="nonzero"/></clipPath><clipPath id="ea6887d857"><path d="M 225 0.640625 L 1275 0.640625 C 1399.265625 0.640625 1500 101.375 1500 225.640625 L 1500 884.359375 C 1500 1008.625 1399.265625 1109.359375 1275 1109.359375 L 225 1109.359375 C 100.734375 1109.359375 0 1008.625 0 884.359375 L 0 225.640625 C 0 101.375 100.734375 0.640625 225 0.640625 Z M 225 0.640625 " clip-rule="nonzero"/></clipPath><clipPath id="17d280e12d"><path d="M 0 0.601562 L 1499 0.601562 L 1499 1109.359375 L 0 1109.359375 Z M 0 0.601562 " clip-rule="nonzero"/></clipPath><clipPath id="08048f64a2"><path d="M 225 0.640625 L 1275 0.640625 C 1399.265625 0.640625 1500 101.375 1500 225.640625 L 1500 884.359375 C 1500 1008.625 1399.265625 1109.359375 1275 1109.359375 L 225 1109.359375 C 100.734375 1109.359375 0 1008.625 0 884.359375 L 0 225.640625 C 0 101.375 100.734375 0.640625 225 0.640625 Z M 225 0.640625 " clip-rule="nonzero"/></clipPath><clipPath id="f5ca5d2ca9"><rect x="0" width="1500" y="0" height="1110"/></clipPath><clipPath id="7bf34a6a0c"><path d="M 930 240 L 1129 240 L 1129 367 L 930 367 Z M 930 240 " clip-rule="nonzero"/></clipPath><clipPath id="d198b8e3ee"><path d="M 1078.65625 174.238281 L 1155.144531 271.039062 L 971.226562 416.367188 L 894.738281 319.566406 Z M 1078.65625 174.238281 " clip-rule="nonzero"/></clipPath><clipPath id="ced1abf2df"><path d="M 1078.65625 174.238281 L 1155.144531 271.039062 L 971.226562 416.367188 L 894.738281 319.566406 Z M 1078.65625 174.238281 " clip-rule="nonzero"/></clipPath><clipPath id="7aa9a1ede7"><path d="M 1028 291 L 1083 291 L 1083 301 L 1028 301 Z M 1028 291 " clip-rule="nonzero"/></clipPath><clipPath id="61e6a9fdb9"><path d="M 1078.65625 174.238281 L 1155.144531 271.039062 L 971.226562 416.367188 L 894.738281 319.566406 Z M 1078.65625 174.238281 " clip-rule="nonzero"/></clipPath><clipPath id="31bb7ff320"><path d="M 1078.65625 174.238281 L 1155.144531 271.039062 L 971.226562 416.367188 L 894.738281 319.566406 Z M 1078.65625 174.238281 " clip-rule="nonzero"/></clipPath><clipPath id="3956e0add5"><path d="M 1028 254 L 1052 254 L 1052 297 L 1028 297 Z M 1028 254 " clip-rule="nonzero"/></clipPath><clipPath id="7dd30e9adb"><path d="M 1078.65625 174.238281 L 1155.144531 271.039062 L 971.226562 416.367188 L 894.738281 319.566406 Z M 1078.65625 174.238281 " clip-rule="nonzero"/></clipPath><clipPath id="14c948dc3a"><path d="M 1078.65625 174.238281 L 1155.144531 271.039062 L 971.226562 416.367188 L 894.738281 319.566406 Z M 1078.65625 174.238281 " clip-rule="nonzero"/></clipPath><clipPath id="4c330d1fb7"><path d="M 979 323 L 1055 323 L 1055 333 L 979 333 Z M 979 323 " clip-rule="nonzero"/></clipPath><clipPath id="5d8d2636d2"><path d="M 1078.65625 174.238281 L 1155.144531 271.039062 L 971.226562 416.367188 L 894.738281 319.566406 Z M 1078.65625 174.238281 " clip-rule="nonzero"/></clipPath><clipPath id="cc647b55f8"><path d="M 1078.65625 174.238281 L 1155.144531 271.039062 L 971.226562 416.367188 L 894.738281 319.566406 Z M 1078.65625 174.238281 " clip-rule="nonzero"/></clipPath><clipPath id="bdb961f7e0"><path d="M 980 256 L 1012 256 L 1012 329 L 980 329 Z M 980 256 " clip-rule="nonzero"/></clipPath><clipPath id="8ebbfc4803"><path d="M 1078.65625 174.238281 L 1155.144531 271.039062 L 971.226562 416.367188 L 894.738281 319.566406 Z M 1078.65625 174.238281 " clip-rule="nonzero"/></clipPath><clipPath id="2f57170f7e"><path d="M 1078.65625 174.238281 L 1155.144531 271.039062 L 971.226562 416.367188 L 894.738281 319.566406 Z M 1078.65625 174.238281 " clip-rule="nonzero"/></clipPath><clipPath id="2676b28af4"><path d="M 956 231 L 1132 231 L 1132 356 L 956 356 Z M 956 231 " clip-rule="nonzero"/></clipPath><clipPath id="de3a06e334"><path d="M 1078.65625 174.238281 L 1155.144531 271.039062 L 971.226562 416.367188 L 894.738281 319.566406 Z M 1078.65625 174.238281 " clip-rule="nonzero"/></clipPath><clipPath id="8c18584296"><path d="M 1078.65625 174.238281 L 1155.144531 271.039062 L 971.226562 416.367188 L 894.738281 319.566406 Z M 1078.65625 174.238281 " clip-rule="nonzero"/></clipPath><clipPath id="2749f33e55"><rect x="0" width="537" y="0" height="920"/></clipPath><clipPath id="e4d8532f50"><rect x="0" width="1500" y="0" height="1111"/></clipPath></defs><g transform="matrix(1, 0, 0, 1, 0, 195)"><g clip-path="url(#e4d8532f50)"><g clip-path="url(#8205905232)"><g transform="matrix(1, 0, 0, 1, 0, 492)"><g clip-path="url(#14f2964c49)"><g clip-path="url(#3db03e85b6)"><path fill="#124828" d="M 0 0.695312 L 598.960938 0.695312 L 598.960938 618.375 L 0 618.375 Z M 0 0.695312 " fill-opacity="1" fill-rule="nonzero"/></g></g></g></g><g clip-path="url(#1b14a64b65)"><g transform="matrix(1, 0, 0, 1, 894, 0.000000000000113687)"><g clip-path="url(#2895761337)"><g clip-path="url(#49dfe722ce)"><path fill="#124828" d="M 0.933594 0.640625 L 599.898438 0.640625 L 599.898438 618.320312 L 0.933594 618.320312 Z M 0.933594 0.640625 " fill-opacity="1" fill-rule="nonzero"/></g></g></g></g><g clip-path="url(#92655dd3ed)"><g clip-path="url(#ea6887d857)"><g transform="matrix(1, 0, 0, 1, 0, 0.000000000000113687)"><g clip-path="url(#f5ca5d2ca9)"><g clip-path="url(#17d280e12d)"><g clip-path="url(#08048f64a2)"><path fill="#124828" d="M 0 0.640625 L 1498.503906 0.640625 L 1498.503906 1109.359375 L 0 1109.359375 Z M 0 0.640625 " fill-opacity="1" fill-rule="nonzero"/></g></g></g></g></g></g><g clip-path="url(#7bf34a6a0c)"><g clip-path="url(#d198b8e3ee)"><g clip-path="url(#ced1abf2df)"><path fill="#eeebe6" d="M 931.25 360.324219 C 941.28125 351.707031 947.957031 346.21875 957.132812 339.152344 C 959.191406 337.566406 965.1875 333.566406 974.765625 327.175781 C 983.722656 321.199219 995.953125 313.035156 1011.375 302.582031 C 1021.910156 295.441406 1030.8125 289.871094 1037.875 285.566406 C 1063.15625 270.15625 1094.855469 253.578125 1123.480469 240.34375 C 1125.105469 239.589844 1127.03125 240.300781 1127.785156 241.925781 C 1128.535156 243.550781 1127.828125 245.476562 1126.203125 246.226562 C 1097.757812 259.382812 1066.28125 275.84375 1041.25 291.101562 C 1034.25 295.371094 1025.4375 300.882812 1015.015625 307.949219 C 999.570312 318.417969 987.324219 326.589844 978.367188 332.566406 C 968.625 339.070312 962.917969 342.878906 961.089844 344.289062 C 952.027344 351.269531 945.4375 356.683594 935.472656 365.242188 C 934.117188 366.410156 932.070312 366.253906 930.902344 364.894531 C 929.734375 363.535156 929.890625 361.488281 931.25 360.324219 Z M 931.25 360.324219 " fill-opacity="1" fill-rule="nonzero"/></g></g></g><g clip-path="url(#7aa9a1ede7)"><g clip-path="url(#61e6a9fdb9)"><g clip-path="url(#31bb7ff320)"><path fill="#eeebe6" d="M 1032.242188 291.929688 C 1034.476562 292.121094 1036.496094 292.300781 1038.40625 292.472656 C 1040.085938 292.621094 1041.628906 292.757812 1043.132812 292.886719 C 1053.839844 293.800781 1061.183594 294.136719 1079.140625 293.027344 C 1080.929688 292.917969 1082.46875 294.277344 1082.578125 296.066406 C 1082.6875 297.851562 1081.328125 299.390625 1079.542969 299.5 C 1061.273438 300.628906 1053.613281 300.289062 1042.582031 299.347656 C 1041.058594 299.21875 1039.511719 299.078125 1037.828125 298.929688 C 1035.917969 298.761719 1033.910156 298.582031 1031.691406 298.390625 C 1029.90625 298.238281 1028.582031 296.667969 1028.734375 294.886719 C 1028.886719 293.101562 1030.457031 291.777344 1032.242188 291.929688 Z M 1032.242188 291.929688 " fill-opacity="1" fill-rule="nonzero"/></g></g></g><g clip-path="url(#3956e0add5)"><g clip-path="url(#7dd30e9adb)"><g clip-path="url(#14c948dc3a)"><path fill="#eeebe6" d="M 1028.851562 292.421875 L 1028.859375 292.394531 L 1028.859375 292.390625 L 1028.851562 292.421875 C 1029.226562 291.269531 1029.757812 289.695312 1030.613281 287.859375 C 1034.03125 280.5625 1044.0625 258.332031 1044.800781 256.226562 C 1045.394531 254.535156 1047.242188 253.648438 1048.933594 254.238281 C 1050.621094 254.832031 1051.511719 256.683594 1050.917969 258.371094 C 1050.042969 260.867188 1039.824219 283.484375 1036.488281 290.609375 C 1035.800781 292.078125 1035.367188 293.351562 1035.011719 294.4375 L 1035.003906 294.46875 C 1034.453125 296.140625 1032.621094 297.070312 1030.921875 296.511719 C 1029.21875 295.953125 1028.292969 294.121094 1028.851562 292.421875 Z M 1028.851562 292.421875 " fill-opacity="1" fill-rule="nonzero"/></g></g></g><g clip-path="url(#4c330d1fb7)"><g clip-path="url(#5d8d2636d2)"><g clip-path="url(#cc647b55f8)"><path fill="#eeebe6" d="M 1054.253906 325.050781 C 1053.574219 324.191406 1052.472656 323.695312 1051.304688 323.839844 C 1029.839844 326.519531 1006.996094 326.648438 982.769531 324.222656 C 980.988281 324.046875 979.398438 325.34375 979.222656 327.125 C 979.132812 327.996094 979.398438 328.824219 979.902344 329.460938 C 980.429688 330.125 981.214844 330.585938 982.125 330.675781 C 1006.835938 333.148438 1030.164062 333.015625 1052.109375 330.273438 C 1053.886719 330.054688 1055.144531 328.433594 1054.925781 326.65625 C 1054.847656 326.046875 1054.609375 325.5 1054.253906 325.050781 Z M 1054.253906 325.050781 " fill-opacity="1" fill-rule="nonzero"/></g></g></g><g clip-path="url(#bdb961f7e0)"><g clip-path="url(#8ebbfc4803)"><g clip-path="url(#2f57170f7e)"><path fill="#eeebe6" d="M 1010.679688 257.234375 C 1010.3125 256.773438 1009.820312 256.40625 1009.222656 256.195312 C 1007.539062 255.59375 1005.683594 256.472656 1005.082031 258.160156 C 999.308594 274.363281 995.816406 283.972656 994.609375 286.984375 C 994.570312 287.082031 994.539062 287.179688 994.507812 287.277344 C 994.125 288.535156 990.132812 298.574219 982.539062 317.386719 C 982.53125 317.398438 982.527344 317.40625 982.523438 317.417969 C 981.152344 320.925781 980.367188 323.132812 980.160156 324.050781 C 980.109375 324.289062 980.074219 324.507812 980.058594 324.714844 C 979.992188 325.5625 980.257812 326.355469 980.746094 326.972656 C 981.289062 327.660156 982.101562 328.125 983.042969 328.195312 C 984.757812 328.328125 986.265625 327.101562 986.5 325.421875 L 986.5 325.417969 C 986.652344 324.789062 987.335938 322.921875 988.550781 319.8125 C 996.019531 301.3125 1000.058594 291.140625 1000.671875 289.296875 C 1001.941406 286.097656 1005.449219 276.445312 1011.191406 260.335938 C 1011.578125 259.246094 1011.347656 258.082031 1010.679688 257.234375 Z M 1010.679688 257.234375 " fill-opacity="1" fill-rule="nonzero"/></g></g></g><g clip-path="url(#2676b28af4)"><g clip-path="url(#de3a06e334)"><g clip-path="url(#8c18584296)"><path fill="#eeebe6" d="M 962.5 338.71875 C 955.476562 318.75 955.300781 300.046875 960.640625 282.28125 C 965.179688 267.195312 974.78125 254.050781 991.277344 244.304688 C 1025.503906 224.089844 1120.339844 232.363281 1129.789062 239.273438 L 1129.734375 239.234375 L 1129.855469 239.324219 L 1129.789062 239.273438 C 1130.203125 239.578125 1130.746094 240.046875 1131.148438 240.734375 C 1131.777344 241.792969 1131.949219 243.203125 1131.246094 244.515625 C 1119.292969 266.9375 1103.71875 294.414062 1094.371094 308.917969 C 1085.214844 323.132812 1076.085938 334.222656 1066.3125 341.269531 C 1054.8125 349.570312 1041.660156 354.316406 1027.160156 355.417969 C 1003.90625 357.1875 974.210938 348.464844 963.191406 341.90625 C 961.652344 340.988281 961.148438 339 962.0625 337.460938 C 962.976562 335.921875 964.96875 335.417969 966.507812 336.332031 C 976.398438 342.222656 1004.769531 350.621094 1026.667969 348.953125 C 1040.011719 347.9375 1052.011719 343.59375 1062.519531 336.011719 C 1071.320312 329.664062 1079.925781 319.371094 1088.921875 305.40625 C 1098.121094 291.125 1113.597656 263.839844 1125.527344 241.464844 C 1125.035156 242.382812 1125.183594 243.386719 1125.566406 244.03125 C 1125.78125 244.394531 1126 244.535156 1125.960938 244.507812 L 1125.894531 244.457031 L 1126.015625 244.546875 L 1125.960938 244.507812 C 1118.890625 239.335938 1026.890625 230.800781 994.574219 249.886719 C 979.464844 258.8125 970.914062 270.640625 966.851562 284.152344 C 961.914062 300.566406 962.035156 317.859375 968.617188 336.570312 C 969.210938 338.257812 968.324219 340.109375 966.632812 340.703125 C 964.945312 341.296875 963.09375 340.410156 962.5 338.71875 Z M 962.5 338.71875 " fill-opacity="1" fill-rule="nonzero"/></g></g></g><g transform="matrix(1, 0, 0, 1, 418, 95)"><g clip-path="url(#2749f33e55)"><g fill="#eeebe6" fill-opacity="1"><g transform="translate(77.122218, 684.43228)"><g><path d="M 243.1875 -504.96875 C 235.289062 -504.96875 226.832031 -503.332031 217.8125 -500.0625 C 208.789062 -496.789062 199.769531 -492.222656 190.75 -486.359375 C 181.738281 -480.503906 173.003906 -473.460938 164.546875 -465.234375 C 156.085938 -457.003906 148.644531 -448.039062 142.21875 -438.34375 C 135.789062 -428.644531 130.660156 -418.269531 126.828125 -407.21875 C 122.992188 -396.175781 121.078125 -384.90625 121.078125 -373.40625 C 121.078125 -357.84375 123.332031 -343.519531 127.84375 -330.4375 C 132.351562 -317.363281 137.929688 -304.851562 144.578125 -292.90625 C 151.234375 -280.957031 158.453125 -269.285156 166.234375 -257.890625 C 174.015625 -246.503906 181.226562 -234.722656 187.875 -222.546875 C 194.53125 -210.367188 200.113281 -197.40625 204.625 -183.65625 C 209.132812 -169.90625 211.390625 -154.910156 211.390625 -138.671875 C 211.390625 -119.503906 209.359375 -101.015625 205.296875 -83.203125 C 201.242188 -65.390625 195.4375 -48.644531 187.875 -32.96875 C 180.320312 -17.300781 171.300781 -2.988281 160.8125 9.96875 C 150.332031 22.9375 138.609375 34.039062 125.640625 43.28125 C 112.679688 52.53125 98.703125 59.75 83.703125 64.9375 C 68.710938 70.125 53.097656 72.71875 36.859375 72.71875 C 18.148438 72.71875 2.257812 69.785156 -10.8125 63.921875 C -23.894531 58.054688 -34.664062 50.671875 -43.125 41.765625 C -51.582031 32.859375 -57.726562 23.21875 -61.5625 12.84375 C -65.394531 2.476562 -67.3125 -7.328125 -67.3125 -16.578125 C -67.3125 -32.359375 -64.660156 -45.941406 -59.359375 -57.328125 C -54.054688 -68.710938 -47.398438 -78.015625 -39.390625 -85.234375 C -31.390625 -92.453125 -22.820312 -97.804688 -13.6875 -101.296875 C -4.5625 -104.796875 3.945312 -106.546875 11.84375 -106.546875 C 15 -106.546875 17.363281 -105.472656 18.9375 -103.328125 C 20.519531 -101.179688 21.3125 -98.867188 21.3125 -96.390625 C 21.3125 -92.554688 19.734375 -89.117188 16.578125 -86.078125 C 13.421875 -83.035156 9.925781 -79.144531 6.09375 -74.40625 C 2.257812 -69.675781 -1.234375 -63.421875 -4.390625 -55.640625 C -7.546875 -47.859375 -9.125 -37.429688 -9.125 -24.359375 C -9.125 -16.015625 -7.828125 -7.785156 -5.234375 0.328125 C -2.648438 8.453125 1.289062 15.671875 6.59375 21.984375 C 11.894531 28.296875 18.546875 33.367188 26.546875 37.203125 C 34.554688 41.035156 43.972656 42.953125 54.796875 42.953125 C 66.515625 42.953125 78.066406 40.414062 89.453125 35.34375 C 100.847656 30.269531 111.050781 23 120.0625 13.53125 C 129.082031 4.0625 136.351562 -7.492188 141.875 -21.140625 C 147.40625 -34.785156 150.171875 -50.175781 150.171875 -67.3125 C 150.171875 -81.289062 147.972656 -95.097656 143.578125 -108.734375 C 139.179688 -122.378906 133.710938 -135.910156 127.171875 -149.328125 C 120.628906 -162.742188 113.523438 -176.046875 105.859375 -189.234375 C 98.191406 -202.429688 91.085938 -215.679688 84.546875 -228.984375 C 78.015625 -242.285156 72.550781 -255.585938 68.15625 -268.890625 C 63.757812 -282.191406 61.5625 -295.722656 61.5625 -309.484375 C 61.5625 -325.484375 64.207031 -342.109375 69.5 -359.359375 C 74.800781 -376.609375 82.070312 -393.460938 91.3125 -409.921875 C 100.5625 -426.390625 111.613281 -442.0625 124.46875 -456.9375 C 137.320312 -471.820312 151.300781 -484.898438 166.40625 -496.171875 C 181.507812 -507.453125 197.515625 -516.359375 214.421875 -522.890625 C 231.335938 -529.429688 248.476562 -532.703125 265.84375 -532.703125 C 277.113281 -532.703125 286.46875 -531.066406 293.90625 -527.796875 C 301.351562 -524.523438 307.273438 -520.296875 311.671875 -515.109375 C 316.066406 -509.929688 319.109375 -504.015625 320.796875 -497.359375 C 322.492188 -490.710938 323.34375 -484.003906 323.34375 -477.234375 C 323.34375 -465.285156 321.707031 -454.179688 318.4375 -443.921875 C 315.164062 -433.660156 310.9375 -424.414062 305.75 -416.1875 C 300.570312 -407.957031 294.820312 -400.6875 288.5 -394.375 C 282.1875 -388.0625 275.984375 -382.757812 269.890625 -378.46875 C 263.804688 -374.1875 258.113281 -370.972656 252.8125 -368.828125 C 247.519531 -366.691406 243.410156 -365.625 240.484375 -365.625 C 237.328125 -365.625 235.125 -365.960938 233.875 -366.640625 C 232.632812 -367.316406 232.015625 -369.570312 232.015625 -373.40625 C 232.921875 -380.164062 235.398438 -387.488281 239.453125 -395.375 C 243.515625 -403.269531 247.800781 -411.445312 252.3125 -419.90625 C 256.820312 -428.363281 260.820312 -437.101562 264.3125 -446.125 C 267.8125 -455.144531 269.5625 -464.160156 269.5625 -473.171875 C 269.5625 -476.328125 269.164062 -479.765625 268.375 -483.484375 C 267.59375 -487.210938 266.242188 -490.65625 264.328125 -493.8125 C 262.410156 -496.96875 259.757812 -499.613281 256.375 -501.75 C 252.988281 -503.894531 248.59375 -504.96875 243.1875 -504.96875 Z M 243.1875 -504.96875 "/></g></g><g transform="translate(350.746511, 684.43228)"><g><path d="M 179.9375 -397.75 C 178.351562 -394.820312 175.703125 -389.804688 171.984375 -382.703125 C 168.265625 -375.597656 163.8125 -366.972656 158.625 -356.828125 C 153.4375 -346.679688 147.6875 -335.347656 141.375 -322.828125 C 135.0625 -310.316406 128.523438 -297.1875 121.765625 -283.4375 C 131.910156 -284.113281 141.097656 -284.84375 149.328125 -285.625 C 157.554688 -286.414062 163.472656 -286.8125 167.078125 -286.8125 C 168.210938 -286.8125 169.0625 -286.414062 169.625 -285.625 C 170.1875 -284.84375 170.46875 -283.882812 170.46875 -282.75 C 170.46875 -280.945312 169.957031 -279.03125 168.9375 -277 C 167.925781 -274.976562 167.082031 -273.398438 166.40625 -272.265625 C 163.695312 -268.210938 160.820312 -263.988281 157.78125 -259.59375 C 154.738281 -255.195312 151.523438 -251.082031 148.140625 -247.25 C 144.753906 -243.414062 141.257812 -240.144531 137.65625 -237.4375 C 134.050781 -234.726562 130.21875 -233.148438 126.15625 -232.703125 C 118.9375 -231.347656 109.242188 -231.347656 97.078125 -232.703125 C 91.429688 -221.203125 85.957031 -209.757812 80.65625 -198.375 C 75.363281 -186.988281 70.40625 -176.109375 65.78125 -165.734375 C 61.15625 -155.359375 56.984375 -145.601562 53.265625 -136.46875 C 49.546875 -127.34375 46.332031 -119.285156 43.625 -112.296875 C 37.3125 -94.703125 31.898438 -79.757812 27.390625 -67.46875 C 22.878906 -55.1875 20.625 -44.421875 20.625 -35.171875 C 20.625 -29.304688 22.257812 -24.515625 25.53125 -20.796875 C 28.800781 -17.078125 34.382812 -15.21875 42.28125 -15.21875 C 47.46875 -15.21875 53.835938 -18.203125 61.390625 -24.171875 C 68.941406 -30.148438 76.773438 -37.988281 84.890625 -47.6875 C 93.015625 -57.382812 101.019531 -68.320312 108.90625 -80.5 C 116.800781 -92.675781 123.679688 -104.851562 129.546875 -117.03125 C 131.347656 -120.632812 133.375 -122.4375 135.625 -122.4375 C 137.207031 -122.4375 138.5625 -121.984375 139.6875 -121.078125 C 140.8125 -120.179688 141.375 -118.832031 141.375 -117.03125 C 141.375 -115.675781 140.925781 -114.097656 140.03125 -112.296875 C 131.90625 -94.484375 122.992188 -77.738281 113.296875 -62.0625 C 103.609375 -46.394531 93.578125 -32.753906 83.203125 -21.140625 C 72.828125 -9.523438 62.285156 -0.335938 51.578125 6.421875 C 40.867188 13.191406 30.328125 16.578125 19.953125 16.578125 C 5.296875 16.578125 -5.242188 12.515625 -11.671875 4.390625 C -18.097656 -3.722656 -21.3125 -15.554688 -21.3125 -31.109375 C -21.3125 -42.390625 -20.125 -54.566406 -17.75 -67.640625 C -15.382812 -80.722656 -11.609375 -95.492188 -6.421875 -111.953125 C -1.234375 -128.410156 5.640625 -147.007812 14.203125 -167.75 C 22.773438 -188.5 33.257812 -212.289062 45.65625 -239.125 C 40.46875 -240.25 35.503906 -241.257812 30.765625 -242.15625 C 26.035156 -243.0625 21.753906 -244.082031 17.921875 -245.21875 C 15.222656 -245.894531 13.082031 -246.34375 11.5 -246.5625 C 9.914062 -246.789062 9.125 -247.46875 9.125 -248.59375 C 9.125 -251.070312 9.859375 -253.328125 11.328125 -255.359375 C 12.796875 -257.390625 14.769531 -259.757812 17.25 -262.46875 C 18.375 -264.269531 19.78125 -266.410156 21.46875 -268.890625 C 23.164062 -271.367188 25.253906 -272.945312 27.734375 -273.625 C 29.535156 -274.070312 33.757812 -274.742188 40.40625 -275.640625 C 47.0625 -276.546875 55.351562 -277.675781 65.28125 -279.03125 C 74.75 -298.65625 85.003906 -319.570312 96.046875 -341.78125 C 107.097656 -363.988281 119.390625 -388.171875 132.921875 -414.328125 C 135.398438 -419.066406 137.992188 -423.632812 140.703125 -428.03125 C 143.410156 -432.425781 146.113281 -436.3125 148.8125 -439.6875 C 151.519531 -443.070312 154.171875 -445.78125 156.765625 -447.8125 C 159.359375 -449.84375 161.785156 -450.859375 164.046875 -450.859375 C 166.742188 -450.859375 169.332031 -449.5625 171.8125 -446.96875 C 174.300781 -444.375 176.390625 -441.160156 178.078125 -437.328125 C 179.765625 -433.492188 181.113281 -429.488281 182.125 -425.3125 C 183.144531 -421.144531 183.65625 -417.484375 183.65625 -414.328125 C 183.65625 -410.046875 183.316406 -406.71875 182.640625 -404.34375 C 181.960938 -401.976562 181.0625 -399.78125 179.9375 -397.75 Z M 179.9375 -397.75 "/></g></g></g></g></g></g></g></svg>