<svg xmlns="http://www.w3.org/2000/svg" xmlns:xlink="http://www.w3.org/1999/xlink" width="2000" zoomAndPan="magnify" viewBox="0 0 1500 1499.999933" height="2000" preserveAspectRatio="xMidYMid meet" version="1.0"><defs><g/><clipPath id="6a313f913f"><path d="M 249 243 L 1052 243 L 1052 1103 L 249 1103 Z M 249 243 " clip-rule="nonzero"/></clipPath><clipPath id="f641b524e5"><path d="M 1371.746094 828.746094 L 646.039062 1337.894531 L 200.210938 702.441406 L 925.917969 193.292969 Z M 1371.746094 828.746094 " clip-rule="nonzero"/></clipPath><clipPath id="ce2175ad44"><path d="M 1371.746094 828.746094 L 646.039062 1337.894531 L 200.210938 702.441406 L 925.917969 193.292969 Z M 1371.746094 828.746094 " clip-rule="nonzero"/></clipPath><clipPath id="2774bd21ae"><path d="M 280 290 L 1110 290 L 1110 1140 L 280 1140 Z M 280 290 " clip-rule="nonzero"/></clipPath><clipPath id="3a1064844a"><path d="M 1328.820312 994.742188 L 487.253906 1273.398438 L 243.253906 536.496094 L 1084.816406 257.839844 Z M 1328.820312 994.742188 " clip-rule="nonzero"/></clipPath><clipPath id="9f1765c7a0"><path d="M 1328.820312 994.742188 L 487.253906 1273.398438 L 243.253906 536.496094 L 1084.816406 257.839844 Z M 1328.820312 994.742188 " clip-rule="nonzero"/></clipPath><clipPath id="60cfe73090"><path d="M 335 375 L 1199 375 L 1199 1154 L 335 1154 Z M 335 375 " clip-rule="nonzero"/></clipPath><clipPath id="db8ada208b"><path d="M 1206.683594 1157.433594 L 320.210938 1150.125 L 326.609375 373.902344 L 1213.078125 381.207031 Z M 1206.683594 1157.433594 " clip-rule="nonzero"/></clipPath><clipPath id="21882c4ea5"><path d="M 1206.683594 1157.433594 L 320.210938 1150.125 L 326.609375 373.902344 L 1213.078125 381.207031 Z M 1206.683594 1157.433594 " clip-rule="nonzero"/></clipPath><clipPath id="9b1faca2b9"><path d="M 701 902 L 847 902 L 847 1049 L 701 1049 Z M 701 902 " clip-rule="nonzero"/></clipPath><clipPath id="5d1dc6a096"><path d="M 690.304688 915.472656 L 833.90625 892.042969 L 857.335938 1035.644531 L 713.734375 1059.074219 Z M 690.304688 915.472656 " clip-rule="nonzero"/></clipPath><clipPath id="0bf6a3a205"><path d="M 690.304688 915.472656 L 833.90625 892.042969 L 857.335938 1035.644531 L 713.734375 1059.074219 Z M 690.304688 915.472656 " clip-rule="nonzero"/></clipPath><clipPath id="4542c4ee02"><path d="M 426 439 L 1114 439 L 1114 572 L 426 572 Z M 426 439 " clip-rule="nonzero"/></clipPath><clipPath id="60cd3afacc"><path d="M 1114.933594 572.726562 L 424.261719 562.289062 L 426.1875 434.804688 L 1116.859375 445.242188 Z M 1114.933594 572.726562 " clip-rule="nonzero"/></clipPath><clipPath id="0df4ccbf77"><path d="M 1114.933594 572.726562 L 424.261719 562.289062 L 426.1875 434.804688 L 1116.859375 445.242188 Z M 1114.933594 572.726562 " clip-rule="nonzero"/></clipPath><clipPath id="b602dd1b92"><rect x="0" width="424" y="0" height="589"/></clipPath></defs><g clip-path="url(#6a313f913f)"><g clip-path="url(#f641b524e5)"><g clip-path="url(#ce2175ad44)"><path fill="#38b6ff" d="M 294.570312 637.195312 L 829.242188 262.074219 C 831.113281 260.761719 833.023438 259.511719 834.972656 258.328125 C 836.921875 257.140625 838.910156 256.019531 840.933594 254.964844 C 842.957031 253.910156 845.015625 252.921875 847.101562 252 C 849.191406 251.078125 851.308594 250.226562 853.453125 249.445312 C 855.59375 248.660156 857.761719 247.949219 859.953125 247.308594 C 862.144531 246.667969 864.355469 246.097656 866.582031 245.601562 C 868.808594 245.105469 871.050781 244.683594 873.308594 244.335938 C 875.5625 243.984375 877.828125 243.710938 880.101562 243.507812 C 882.375 243.304688 884.652344 243.179688 886.933594 243.128906 C 889.21875 243.074219 891.5 243.097656 893.777344 243.195312 C 896.058594 243.292969 898.335938 243.460938 900.605469 243.707031 C 902.875 243.953125 905.132812 244.273438 907.378906 244.667969 C 909.628906 245.0625 911.863281 245.527344 914.078125 246.066406 C 916.296875 246.609375 918.496094 247.21875 920.671875 247.902344 C 922.851562 248.585938 925.003906 249.339844 927.132812 250.164062 C 929.261719 250.988281 931.359375 251.882812 933.429688 252.84375 C 935.5 253.804688 937.539062 254.835938 939.539062 255.929688 C 941.542969 257.023438 943.507812 258.183594 945.433594 259.40625 C 947.363281 260.632812 949.246094 261.917969 951.089844 263.265625 C 952.933594 264.609375 954.730469 266.015625 956.480469 267.480469 C 958.230469 268.945312 959.929688 270.464844 961.582031 272.042969 C 963.234375 273.617188 964.832031 275.246094 966.375 276.925781 C 967.921875 278.605469 969.410156 280.335938 970.839844 282.113281 C 972.273438 283.890625 973.644531 285.714844 974.957031 287.582031 C 976.269531 289.449219 977.519531 291.359375 978.707031 293.308594 C 979.894531 295.257812 981.015625 297.242188 982.074219 299.265625 C 983.132812 301.289062 984.121094 303.34375 985.046875 305.433594 C 985.96875 307.519531 986.820312 309.636719 987.605469 311.78125 C 988.390625 313.921875 989.105469 316.089844 989.746094 318.28125 C 990.390625 320.46875 990.960938 322.679688 991.457031 324.90625 C 991.957031 327.132812 992.382812 329.375 992.734375 331.632812 C 993.085938 333.886719 993.363281 336.152344 993.566406 338.425781 L 1051.351562 989.011719 C 1051.550781 991.285156 1051.675781 993.566406 1051.726562 995.851562 C 1051.777344 998.132812 1051.753906 1000.417969 1051.65625 1002.699219 C 1051.558594 1004.980469 1051.386719 1007.257812 1051.136719 1009.527344 C 1050.890625 1011.800781 1050.566406 1014.058594 1050.171875 1016.308594 C 1049.777344 1018.558594 1049.308594 1020.792969 1048.765625 1023.015625 C 1048.226562 1025.234375 1047.613281 1027.433594 1046.925781 1029.613281 C 1046.242188 1031.789062 1045.484375 1033.945312 1044.660156 1036.074219 C 1043.832031 1038.203125 1042.9375 1040.304688 1041.972656 1042.375 C 1041.007812 1044.445312 1039.976562 1046.484375 1038.878906 1048.488281 C 1037.78125 1050.492188 1036.621094 1052.457031 1035.394531 1054.382812 C 1034.167969 1056.3125 1032.882812 1058.195312 1031.53125 1060.039062 C 1030.183594 1061.882812 1028.773438 1063.679688 1027.308594 1065.433594 C 1025.839844 1067.183594 1024.316406 1068.882812 1022.738281 1070.535156 C 1021.160156 1072.1875 1019.53125 1073.785156 1017.847656 1075.332031 C 1016.164062 1076.875 1014.433594 1078.363281 1012.652344 1079.792969 C 1010.871094 1081.226562 1009.046875 1082.597656 1007.179688 1083.910156 C 1005.308594 1085.222656 1003.398438 1086.472656 1001.445312 1087.660156 C 999.492188 1088.84375 997.503906 1089.96875 995.480469 1091.023438 C 993.453125 1092.082031 991.398438 1093.070312 989.304688 1093.992188 C 987.214844 1094.914062 985.097656 1095.765625 982.953125 1096.550781 C 980.808594 1097.335938 978.636719 1098.046875 976.445312 1098.6875 C 974.253906 1099.332031 972.042969 1099.898438 969.8125 1100.398438 C 967.582031 1100.894531 965.339844 1101.316406 963.082031 1101.667969 C 960.824219 1102.015625 958.558594 1102.292969 956.28125 1102.496094 C 954.007812 1102.695312 951.726562 1102.824219 949.441406 1102.875 C 947.160156 1102.929688 944.875 1102.90625 942.59375 1102.808594 C 940.3125 1102.714844 938.035156 1102.542969 935.765625 1102.296875 C 933.492188 1102.050781 931.230469 1101.730469 928.980469 1101.335938 C 926.730469 1100.941406 924.496094 1100.476562 922.277344 1099.9375 C 920.058594 1099.394531 917.859375 1098.785156 915.679688 1098.101562 C 913.5 1097.417969 911.34375 1096.660156 909.214844 1095.835938 C 907.082031 1095.011719 904.980469 1094.117188 902.910156 1093.15625 L 319.230469 821.414062 C 314.144531 819.664062 309.230469 817.519531 304.484375 814.980469 C 299.742188 812.441406 295.234375 809.542969 290.957031 806.277344 C 286.679688 803.015625 282.691406 799.429688 278.988281 795.523438 C 275.289062 791.621094 271.925781 787.445312 268.894531 782.996094 C 267.921875 781.609375 266.980469 780.195312 266.074219 778.761719 C 265.167969 777.324219 264.296875 775.867188 263.460938 774.390625 C 262.625 772.914062 261.828125 771.414062 261.0625 769.898438 C 260.300781 768.382812 259.578125 766.847656 258.890625 765.296875 C 258.203125 763.742188 257.550781 762.175781 256.941406 760.589844 C 256.328125 759.007812 255.757812 757.410156 255.222656 755.800781 C 254.691406 754.1875 254.195312 752.5625 253.742188 750.929688 C 253.289062 749.292969 252.875 747.648438 252.5 745.992188 C 252.125 744.335938 251.792969 742.671875 251.5 741 C 251.207031 739.328125 250.953125 737.648438 250.742188 735.964844 C 250.53125 734.28125 250.359375 732.589844 250.230469 730.898438 C 250.101562 729.207031 250.015625 727.511719 249.96875 725.8125 C 249.921875 724.117188 249.917969 722.421875 249.953125 720.722656 C 249.988281 719.027344 250.066406 717.332031 250.1875 715.636719 C 250.304688 713.945312 250.464844 712.253906 250.664062 710.570312 C 250.867188 708.882812 251.109375 707.203125 251.390625 705.53125 C 251.675781 703.855469 251.996094 702.191406 252.363281 700.53125 C 252.726562 698.875 253.128906 697.226562 253.574219 695.585938 C 254.019531 693.949219 254.503906 692.320312 255.027344 690.707031 C 255.550781 689.09375 256.113281 687.492188 256.714844 685.902344 C 257.316406 684.316406 257.957031 682.746094 258.632812 681.1875 C 259.3125 679.632812 260.027344 678.09375 260.78125 676.574219 C 261.535156 675.050781 262.324219 673.550781 263.152344 672.066406 C 263.976562 670.582031 264.839844 669.121094 265.734375 667.679688 C 266.632812 666.238281 267.566406 664.820312 268.53125 663.425781 C 269.5 662.03125 270.5 660.660156 271.53125 659.3125 C 272.566406 657.964844 273.632812 656.644531 274.730469 655.351562 C 275.828125 654.054688 276.957031 652.789062 278.113281 651.546875 C 279.273438 650.308594 280.464844 649.097656 281.683594 647.914062 C 282.902344 646.734375 284.148438 645.582031 285.421875 644.460938 C 286.695312 643.339844 287.996094 642.25 289.324219 641.191406 C 290.652344 640.132812 292.003906 639.109375 293.382812 638.117188 Z M 294.570312 637.195312 " fill-opacity="1" fill-rule="nonzero"/></g></g></g><g clip-path="url(#2774bd21ae)"><g clip-path="url(#3a1064844a)"><g clip-path="url(#9f1765c7a0)"><path fill="#ffde59" d="M 352.398438 501.179688 L 972.433594 295.875 C 974.601562 295.15625 976.789062 294.511719 979 293.9375 C 981.207031 293.363281 983.433594 292.863281 985.675781 292.433594 C 987.917969 292.003906 990.171875 291.652344 992.4375 291.371094 C 994.703125 291.089844 996.972656 290.882812 999.253906 290.75 C 1001.53125 290.617188 1003.8125 290.5625 1006.09375 290.578125 C 1008.378906 290.59375 1010.65625 290.6875 1012.933594 290.851562 C 1015.210938 291.019531 1017.480469 291.257812 1019.738281 291.574219 C 1022 291.886719 1024.25 292.277344 1026.484375 292.738281 C 1028.71875 293.199219 1030.9375 293.734375 1033.136719 294.339844 C 1035.339844 294.949219 1037.515625 295.625 1039.671875 296.375 C 1041.828125 297.125 1043.957031 297.945312 1046.0625 298.832031 C 1048.164062 299.722656 1050.234375 300.679688 1052.273438 301.703125 C 1054.3125 302.726562 1056.320312 303.816406 1058.285156 304.972656 C 1060.253906 306.128906 1062.183594 307.347656 1064.074219 308.628906 C 1065.960938 309.910156 1067.808594 311.25 1069.609375 312.652344 C 1071.410156 314.054688 1073.164062 315.515625 1074.867188 317.035156 C 1076.574219 318.550781 1078.226562 320.121094 1079.828125 321.746094 C 1081.433594 323.371094 1082.980469 325.046875 1084.472656 326.773438 C 1085.964844 328.5 1087.402344 330.273438 1088.777344 332.09375 C 1090.15625 333.917969 1091.472656 335.78125 1092.726562 337.6875 C 1093.980469 339.59375 1095.171875 341.539062 1096.300781 343.523438 C 1097.429688 345.507812 1098.488281 347.527344 1099.484375 349.582031 C 1100.480469 351.636719 1101.40625 353.71875 1102.265625 355.835938 C 1103.125 357.949219 1103.914062 360.089844 1104.632812 362.257812 C 1105.351562 364.421875 1106 366.609375 1106.578125 368.820312 C 1107.152344 371.027344 1107.65625 373.253906 1108.085938 375.496094 C 1108.515625 377.738281 1108.875 379.988281 1109.15625 382.253906 C 1109.4375 384.519531 1109.648438 386.792969 1109.78125 389.070312 C 1109.914062 391.347656 1109.976562 393.628906 1109.960938 395.914062 C 1109.945312 398.195312 1109.855469 400.472656 1109.691406 402.75 C 1109.527344 405.027344 1109.289062 407.296875 1108.976562 409.558594 C 1108.664062 411.820312 1108.277344 414.066406 1107.816406 416.304688 L 975.847656 1055.980469 C 975.386719 1058.214844 974.847656 1060.433594 974.242188 1062.636719 C 973.632812 1064.839844 972.953125 1067.019531 972.199219 1069.175781 C 971.449219 1071.332031 970.628906 1073.464844 969.738281 1075.566406 C 968.847656 1077.671875 967.886719 1079.742188 966.859375 1081.785156 C 965.835938 1083.824219 964.742188 1085.828125 963.585938 1087.800781 C 962.425781 1089.769531 961.207031 1091.699219 959.921875 1093.585938 C 958.640625 1095.476562 957.292969 1097.320312 955.890625 1099.125 C 954.484375 1100.925781 953.023438 1102.679688 951.503906 1104.382812 C 949.984375 1106.089844 948.410156 1107.746094 946.78125 1109.347656 C 945.15625 1110.949219 943.476562 1112.496094 941.746094 1113.992188 C 940.019531 1115.484375 938.242188 1116.917969 936.417969 1118.296875 C 934.597656 1119.671875 932.730469 1120.988281 930.820312 1122.242188 C 928.914062 1123.496094 926.964844 1124.6875 924.976562 1125.816406 C 922.992188 1126.941406 920.96875 1128.003906 918.914062 1129 C 916.855469 1129.992188 914.769531 1130.917969 912.652344 1131.777344 C 910.535156 1132.636719 908.394531 1133.425781 906.222656 1134.144531 C 904.054688 1134.859375 901.867188 1135.507812 899.65625 1136.082031 C 897.445312 1136.65625 895.21875 1137.160156 892.972656 1137.585938 C 890.730469 1138.015625 888.472656 1138.371094 886.207031 1138.652344 C 883.941406 1138.933594 881.667969 1139.140625 879.386719 1139.273438 C 877.105469 1139.40625 874.824219 1139.464844 872.539062 1139.449219 C 870.253906 1139.429688 867.972656 1139.339844 865.695312 1139.171875 C 863.414062 1139.007812 861.144531 1138.765625 858.882812 1138.453125 C 856.621094 1138.136719 854.371094 1137.75 852.132812 1137.289062 C 849.894531 1136.824219 847.675781 1136.292969 845.472656 1135.683594 C 843.273438 1135.078125 841.089844 1134.398438 838.933594 1133.648438 C 836.777344 1132.898438 834.644531 1132.078125 832.539062 1131.191406 C 830.4375 1130.300781 828.363281 1129.34375 826.320312 1128.320312 C 824.28125 1127.292969 822.273438 1126.203125 820.304688 1125.046875 C 818.335938 1123.890625 816.402344 1122.671875 814.511719 1121.390625 C 812.625 1120.105469 810.777344 1118.761719 808.972656 1117.359375 C 807.171875 1115.957031 805.417969 1114.496094 803.710938 1112.976562 L 322.980469 684.699219 C 318.613281 681.558594 314.523438 678.089844 310.710938 674.292969 C 306.898438 670.496094 303.414062 666.417969 300.257812 662.0625 C 297.101562 657.707031 294.316406 653.125 291.894531 648.320312 C 289.476562 643.515625 287.457031 638.546875 285.835938 633.417969 C 285.300781 631.804688 284.808594 630.179688 284.351562 628.546875 C 283.898438 626.910156 283.484375 625.265625 283.109375 623.609375 C 282.734375 621.953125 282.402344 620.289062 282.105469 618.617188 C 281.8125 616.945312 281.5625 615.265625 281.347656 613.582031 C 281.136719 611.898438 280.96875 610.210938 280.839844 608.519531 C 280.707031 606.824219 280.621094 605.128906 280.574219 603.433594 C 280.527344 601.738281 280.519531 600.039062 280.558594 598.34375 C 280.59375 596.644531 280.671875 594.949219 280.789062 593.257812 C 280.90625 591.5625 281.066406 589.875 281.265625 588.1875 C 281.46875 586.5 281.710938 584.820312 281.992188 583.148438 C 282.273438 581.472656 282.597656 579.808594 282.960938 578.148438 C 283.324219 576.492188 283.730469 574.84375 284.171875 573.207031 C 284.617188 571.566406 285.101562 569.941406 285.625 568.324219 C 286.148438 566.710938 286.710938 565.109375 287.3125 563.523438 C 287.914062 561.933594 288.550781 560.363281 289.230469 558.804688 C 289.90625 557.25 290.625 555.710938 291.375 554.1875 C 292.128906 552.667969 292.917969 551.164062 293.746094 549.683594 C 294.570312 548.199219 295.433594 546.738281 296.328125 545.296875 C 297.226562 543.855469 298.160156 542.4375 299.125 541.039062 C 300.089844 539.644531 301.089844 538.273438 302.125 536.925781 C 303.15625 535.578125 304.222656 534.257812 305.320312 532.964844 C 306.417969 531.667969 307.546875 530.402344 308.707031 529.160156 C 309.863281 527.921875 311.054688 526.710938 312.269531 525.527344 C 313.488281 524.34375 314.734375 523.195312 316.011719 522.070312 C 317.285156 520.949219 318.585938 519.859375 319.914062 518.804688 C 321.242188 517.746094 322.59375 516.71875 323.96875 515.726562 C 325.347656 514.734375 326.75 513.777344 328.171875 512.851562 C 329.597656 511.929688 331.042969 511.039062 332.511719 510.1875 C 333.976562 509.332031 335.464844 508.515625 336.972656 507.734375 C 338.480469 506.953125 340.003906 506.210938 341.546875 505.503906 C 343.089844 504.796875 344.652344 504.128906 346.226562 503.496094 C 347.804688 502.867188 349.394531 502.273438 351 501.71875 Z M 352.398438 501.179688 " fill-opacity="1" fill-rule="nonzero"/></g></g></g><g clip-path="url(#60cfe73090)"><g clip-path="url(#db8ada208b)"><g clip-path="url(#21882c4ea5)"><path fill="#7ed957" d="M 441.316406 375.628906 L 1094.433594 381.011719 C 1096.714844 381.03125 1098.996094 381.125 1101.273438 381.292969 C 1103.546875 381.460938 1105.816406 381.703125 1108.078125 382.019531 C 1110.339844 382.339844 1112.585938 382.726562 1114.820312 383.191406 C 1117.054688 383.65625 1119.273438 384.191406 1121.472656 384.800781 C 1123.671875 385.410156 1125.851562 386.089844 1128.007812 386.84375 C 1130.160156 387.59375 1132.289062 388.414062 1134.390625 389.304688 C 1136.492188 390.195312 1138.5625 391.15625 1140.601562 392.179688 C 1142.640625 393.207031 1144.644531 394.296875 1146.613281 395.457031 C 1148.578125 396.613281 1150.507812 397.832031 1152.394531 399.117188 C 1154.28125 400.398438 1156.125 401.742188 1157.925781 403.148438 C 1159.726562 404.550781 1161.476562 406.011719 1163.183594 407.53125 C 1164.886719 409.050781 1166.539062 410.625 1168.140625 412.25 C 1169.742188 413.878906 1171.289062 415.554688 1172.777344 417.28125 C 1174.269531 419.011719 1175.703125 420.785156 1177.078125 422.605469 C 1178.453125 424.429688 1179.769531 426.292969 1181.019531 428.203125 C 1182.273438 430.109375 1183.464844 432.054688 1184.589844 434.042969 C 1185.714844 436.027344 1186.777344 438.046875 1187.769531 440.101562 C 1188.761719 442.15625 1189.6875 444.242188 1190.546875 446.359375 C 1191.402344 448.472656 1192.191406 450.617188 1192.90625 452.78125 C 1193.625 454.949219 1194.269531 457.136719 1194.84375 459.347656 C 1195.417969 461.554688 1195.917969 463.78125 1196.347656 466.023438 C 1196.773438 468.265625 1197.128906 470.519531 1197.410156 472.785156 C 1197.691406 475.050781 1197.898438 477.324219 1198.027344 479.601562 C 1198.160156 481.878906 1198.21875 484.160156 1198.203125 486.445312 C 1198.183594 488.726562 1198.09375 491.003906 1197.925781 493.28125 C 1197.757812 495.558594 1197.519531 497.828125 1197.203125 500.089844 C 1196.890625 502.347656 1196.5 504.597656 1196.039062 506.832031 C 1195.578125 509.066406 1195.042969 511.285156 1194.4375 513.484375 C 1193.828125 515.6875 1193.152344 517.863281 1192.402344 520.019531 C 1191.652344 522.175781 1190.832031 524.304688 1189.941406 526.410156 C 1189.054688 528.511719 1188.097656 530.582031 1187.074219 532.621094 C 1186.050781 534.660156 1184.957031 536.664062 1183.804688 538.632812 L 852.800781 1101.695312 C 851.640625 1103.664062 850.417969 1105.59375 849.132812 1107.480469 C 847.847656 1109.367188 846.5 1111.214844 845.09375 1113.011719 C 843.6875 1114.8125 842.226562 1116.566406 840.703125 1118.269531 C 839.183594 1119.976562 837.609375 1121.628906 835.980469 1123.230469 C 834.351562 1124.832031 832.671875 1126.375 830.941406 1127.867188 C 829.210938 1129.359375 827.433594 1130.792969 825.609375 1132.167969 C 823.785156 1133.542969 821.917969 1134.855469 820.007812 1136.109375 C 818.097656 1137.363281 816.148438 1138.550781 814.160156 1139.675781 C 812.171875 1140.804688 810.148438 1141.863281 808.089844 1142.855469 C 806.035156 1143.847656 803.945312 1144.773438 801.828125 1145.628906 C 799.710938 1146.484375 797.566406 1147.273438 795.398438 1147.988281 C 793.230469 1148.703125 791.039062 1149.347656 788.828125 1149.921875 C 786.617188 1150.492188 784.386719 1150.992188 782.144531 1151.421875 C 779.898438 1151.847656 777.644531 1152.199219 775.375 1152.480469 C 773.109375 1152.757812 770.835938 1152.964844 768.554688 1153.09375 C 766.273438 1153.226562 763.992188 1153.28125 761.707031 1153.261719 C 759.421875 1153.242188 757.140625 1153.152344 754.863281 1152.980469 C 752.585938 1152.8125 750.316406 1152.570312 748.050781 1152.253906 C 745.789062 1151.9375 743.539062 1151.546875 741.304688 1151.085938 C 739.066406 1150.621094 736.847656 1150.082031 734.644531 1149.476562 C 732.445312 1148.867188 730.265625 1148.183594 728.109375 1147.433594 C 725.949219 1146.679688 723.820312 1145.859375 721.71875 1144.96875 C 719.613281 1144.078125 717.542969 1143.117188 715.5 1142.09375 C 713.460938 1141.066406 711.457031 1139.972656 709.484375 1138.816406 C 707.515625 1137.65625 705.589844 1136.4375 703.699219 1135.152344 C 701.808594 1133.867188 699.964844 1132.523438 698.164062 1131.117188 C 696.363281 1129.710938 694.609375 1128.25 692.902344 1126.730469 C 691.195312 1125.210938 689.542969 1123.636719 687.941406 1122.007812 C 686.339844 1120.382812 684.789062 1118.703125 683.296875 1116.972656 C 681.804688 1115.242188 680.371094 1113.46875 678.992188 1111.644531 C 677.617188 1109.820312 676.300781 1107.953125 675.046875 1106.046875 C 673.792969 1104.136719 672.601562 1102.1875 671.476562 1100.203125 L 354.34375 539.886719 C 351.21875 535.507812 348.464844 530.90625 346.078125 526.085938 C 343.695312 521.261719 341.710938 516.28125 340.125 511.140625 C 338.542969 505.996094 337.378906 500.761719 336.636719 495.433594 C 335.894531 490.105469 335.582031 484.753906 335.699219 479.375 C 335.714844 477.675781 335.769531 475.980469 335.863281 474.285156 C 335.960938 472.589844 336.097656 470.898438 336.277344 469.210938 C 336.457031 467.523438 336.675781 465.839844 336.9375 464.164062 C 337.199219 462.484375 337.5 460.816406 337.84375 459.152344 C 338.183594 457.488281 338.566406 455.835938 338.988281 454.191406 C 339.414062 452.546875 339.875 450.914062 340.378906 449.292969 C 340.878906 447.671875 341.421875 446.0625 342 444.46875 C 342.582031 442.875 343.203125 441.292969 343.859375 439.730469 C 344.515625 438.164062 345.210938 436.617188 345.945312 435.085938 C 346.679688 433.554688 347.449219 432.039062 348.253906 430.546875 C 349.0625 429.054688 349.90625 427.582031 350.78125 426.128906 C 351.660156 424.675781 352.574219 423.246094 353.523438 421.835938 C 354.472656 420.429688 355.453125 419.042969 356.46875 417.683594 C 357.484375 416.324219 358.53125 414.988281 359.613281 413.679688 C 360.695312 412.371094 361.804688 411.089844 362.949219 409.835938 C 364.09375 408.578125 365.265625 407.351562 366.46875 406.15625 C 367.671875 404.957031 368.902344 403.789062 370.160156 402.652344 C 371.421875 401.511719 372.707031 400.40625 374.023438 399.332031 C 375.335938 398.257812 376.675781 397.214844 378.039062 396.203125 C 379.402344 395.195312 380.792969 394.21875 382.203125 393.277344 C 383.617188 392.332031 385.050781 391.425781 386.503906 390.554688 C 387.960938 389.679688 389.4375 388.84375 390.933594 388.042969 C 392.433594 387.242188 393.949219 386.480469 395.480469 385.753906 C 397.015625 385.027344 398.566406 384.335938 400.136719 383.6875 C 401.703125 383.035156 403.285156 382.421875 404.882812 381.847656 C 406.480469 381.273438 408.089844 380.738281 409.714844 380.242188 C 411.339844 379.75 412.972656 379.292969 414.617188 378.875 C 416.265625 378.460938 417.917969 378.085938 419.582031 377.75 C 421.246094 377.414062 422.917969 377.121094 424.597656 376.867188 C 426.277344 376.613281 427.960938 376.398438 429.648438 376.226562 C 431.335938 376.054688 433.03125 375.925781 434.722656 375.835938 C 436.417969 375.746094 438.117188 375.699219 439.8125 375.691406 Z M 441.316406 375.628906 " fill-opacity="1" fill-rule="nonzero"/></g></g></g><g clip-path="url(#9b1faca2b9)"><g clip-path="url(#5d1dc6a096)"><g clip-path="url(#0bf6a3a205)"><path fill="#ffffff" d="M 845.808594 963.902344 C 846 965.078125 846.164062 966.257812 846.296875 967.445312 C 846.433594 968.628906 846.535156 969.816406 846.613281 971.003906 C 846.6875 972.195312 846.734375 973.386719 846.753906 974.578125 C 846.769531 975.769531 846.757812 976.960938 846.714844 978.152344 C 846.675781 979.34375 846.605469 980.53125 846.503906 981.722656 C 846.40625 982.910156 846.277344 984.09375 846.117188 985.273438 C 845.960938 986.457031 845.773438 987.632812 845.558594 988.804688 C 845.34375 989.976562 845.097656 991.144531 844.824219 992.304688 C 844.550781 993.464844 844.25 994.617188 843.921875 995.765625 C 843.59375 996.910156 843.234375 998.046875 842.847656 999.175781 C 842.464844 1000.300781 842.050781 1001.421875 841.609375 1002.527344 C 841.171875 1003.636719 840.703125 1004.734375 840.210938 1005.816406 C 839.714844 1006.902344 839.195312 1007.972656 838.648438 1009.035156 C 838.101562 1010.09375 837.53125 1011.136719 836.933594 1012.167969 C 836.332031 1013.199219 835.710938 1014.214844 835.0625 1015.21875 C 834.414062 1016.21875 833.742188 1017.203125 833.046875 1018.167969 C 832.351562 1019.136719 831.632812 1020.085938 830.886719 1021.019531 C 830.144531 1021.953125 829.378906 1022.863281 828.59375 1023.761719 C 827.804688 1024.65625 826.996094 1025.53125 826.164062 1026.382812 C 825.335938 1027.238281 824.484375 1028.074219 823.613281 1028.886719 C 822.738281 1029.699219 821.847656 1030.492188 820.9375 1031.261719 C 820.027344 1032.03125 819.097656 1032.777344 818.152344 1033.5 C 817.207031 1034.226562 816.242188 1034.925781 815.257812 1035.601562 C 814.277344 1036.277344 813.28125 1036.929688 812.265625 1037.558594 C 811.253906 1038.183594 810.226562 1038.789062 809.183594 1039.363281 C 808.140625 1039.941406 807.082031 1040.492188 806.011719 1041.019531 C 804.941406 1041.542969 803.859375 1042.042969 802.765625 1042.515625 C 801.671875 1042.984375 800.566406 1043.429688 799.449219 1043.847656 C 798.332031 1044.265625 797.207031 1044.65625 796.070312 1045.019531 C 794.933594 1045.382812 793.792969 1045.714844 792.640625 1046.023438 C 791.488281 1046.328125 790.328125 1046.605469 789.164062 1046.855469 C 787.996094 1047.105469 786.828125 1047.324219 785.648438 1047.519531 C 784.472656 1047.710938 783.292969 1047.871094 782.109375 1048.007812 C 780.921875 1048.140625 779.738281 1048.246094 778.546875 1048.320312 C 777.359375 1048.398438 776.167969 1048.445312 774.976562 1048.460938 C 773.78125 1048.476562 772.589844 1048.464844 771.398438 1048.425781 C 770.207031 1048.382812 769.019531 1048.3125 767.832031 1048.214844 C 766.644531 1048.113281 765.457031 1047.984375 764.277344 1047.828125 C 763.09375 1047.667969 761.917969 1047.480469 760.746094 1047.265625 C 759.574219 1047.050781 758.40625 1046.808594 757.246094 1046.535156 C 756.085938 1046.261719 754.933594 1045.960938 753.789062 1045.628906 C 752.640625 1045.300781 751.503906 1044.941406 750.378906 1044.558594 C 749.25 1044.171875 748.132812 1043.761719 747.023438 1043.320312 C 745.914062 1042.878906 744.820312 1042.414062 743.734375 1041.917969 C 742.648438 1041.425781 741.578125 1040.902344 740.519531 1040.355469 C 739.460938 1039.8125 738.414062 1039.238281 737.382812 1038.640625 C 736.351562 1038.042969 735.335938 1037.417969 734.335938 1036.773438 C 733.335938 1036.125 732.351562 1035.453125 731.382812 1034.753906 C 730.414062 1034.058594 729.464844 1033.339844 728.53125 1032.597656 C 727.601562 1031.855469 726.6875 1031.089844 725.792969 1030.300781 C 724.898438 1029.511719 724.023438 1028.703125 723.167969 1027.875 C 722.3125 1027.042969 721.476562 1026.191406 720.664062 1025.320312 C 719.851562 1024.449219 719.0625 1023.558594 718.292969 1022.648438 C 717.523438 1021.738281 716.773438 1020.808594 716.050781 1019.859375 C 715.328125 1018.914062 714.628906 1017.949219 713.949219 1016.96875 C 713.273438 1015.988281 712.621094 1014.988281 711.996094 1013.976562 C 711.367188 1012.960938 710.765625 1011.933594 710.1875 1010.890625 C 709.609375 1009.847656 709.058594 1008.792969 708.535156 1007.722656 C 708.007812 1006.652344 707.511719 1005.570312 707.039062 1004.472656 C 706.566406 1003.378906 706.121094 1002.273438 705.703125 1001.15625 C 705.285156 1000.042969 704.894531 998.914062 704.53125 997.78125 C 704.171875 996.644531 703.835938 995.5 703.53125 994.347656 C 703.222656 993.195312 702.945312 992.039062 702.695312 990.871094 C 702.445312 989.707031 702.226562 988.535156 702.035156 987.359375 C 701.84375 986.183594 701.679688 985 701.546875 983.816406 C 701.410156 982.632812 701.304688 981.445312 701.230469 980.253906 C 701.15625 979.066406 701.109375 977.875 701.089844 976.683594 C 701.074219 975.492188 701.085938 974.300781 701.128906 973.109375 C 701.167969 971.917969 701.238281 970.726562 701.339844 969.539062 C 701.4375 968.351562 701.566406 967.167969 701.726562 965.984375 C 701.882812 964.804688 702.070312 963.628906 702.285156 962.453125 C 702.5 961.28125 702.746094 960.117188 703.019531 958.957031 C 703.292969 957.796875 703.59375 956.640625 703.921875 955.496094 C 704.25 954.351562 704.609375 953.214844 704.992188 952.085938 C 705.378906 950.957031 705.792969 949.839844 706.230469 948.730469 C 706.671875 947.625 707.140625 946.527344 707.632812 945.441406 C 708.128906 944.359375 708.648438 943.285156 709.195312 942.226562 C 709.742188 941.167969 710.3125 940.121094 710.910156 939.089844 C 711.511719 938.058594 712.132812 937.042969 712.78125 936.042969 C 713.429688 935.042969 714.101562 934.058594 714.796875 933.089844 C 715.492188 932.125 716.210938 931.171875 716.957031 930.242188 C 717.699219 929.308594 718.464844 928.394531 719.25 927.5 C 720.039062 926.605469 720.847656 925.730469 721.679688 924.875 C 722.507812 924.019531 723.359375 923.1875 724.230469 922.375 C 725.101562 921.5625 725.996094 920.769531 726.90625 920 C 727.816406 919.230469 728.742188 918.484375 729.691406 917.761719 C 730.636719 917.035156 731.601562 916.335938 732.582031 915.660156 C 733.566406 914.984375 734.5625 914.332031 735.578125 913.703125 C 736.589844 913.074219 737.617188 912.472656 738.660156 911.894531 C 739.703125 911.320312 740.761719 910.769531 741.832031 910.242188 C 742.902344 909.71875 743.984375 909.21875 745.078125 908.746094 C 746.171875 908.273438 747.277344 907.828125 748.394531 907.414062 C 749.511719 906.996094 750.636719 906.605469 751.773438 906.242188 C 752.90625 905.878906 754.050781 905.542969 755.203125 905.238281 C 756.355469 904.933594 757.515625 904.65625 758.679688 904.40625 C 759.847656 904.15625 761.015625 903.933594 762.195312 903.742188 C 763.371094 903.550781 764.550781 903.386719 765.734375 903.253906 C 766.917969 903.121094 768.105469 903.015625 769.296875 902.941406 C 770.484375 902.863281 771.675781 902.816406 772.867188 902.800781 C 774.0625 902.78125 775.253906 902.792969 776.445312 902.835938 C 777.636719 902.878906 778.824219 902.949219 780.011719 903.046875 C 781.199219 903.148438 782.386719 903.277344 783.566406 903.433594 C 784.75 903.589844 785.925781 903.777344 787.097656 903.992188 C 788.269531 904.210938 789.4375 904.453125 790.597656 904.726562 C 791.757812 905 792.910156 905.300781 794.054688 905.628906 C 795.203125 905.960938 796.339844 906.316406 797.464844 906.703125 C 798.59375 907.089844 799.710938 907.5 800.820312 907.941406 C 801.925781 908.382812 803.023438 908.847656 804.109375 909.34375 C 805.195312 909.835938 806.265625 910.355469 807.324219 910.902344 C 808.382812 911.449219 809.429688 912.023438 810.460938 912.621094 C 811.492188 913.21875 812.507812 913.839844 813.507812 914.488281 C 814.507812 915.136719 815.492188 915.808594 816.460938 916.503906 C 817.429688 917.203125 818.378906 917.921875 819.3125 918.664062 C 820.242188 919.40625 821.15625 920.171875 822.050781 920.960938 C 822.945312 921.746094 823.820312 922.554688 824.675781 923.386719 C 825.53125 924.21875 826.363281 925.070312 827.179688 925.941406 C 827.992188 926.8125 828.78125 927.703125 829.550781 928.613281 C 830.320312 929.523438 831.070312 930.453125 831.792969 931.398438 C 832.515625 932.347656 833.214844 933.3125 833.894531 934.292969 C 834.570312 935.273438 835.222656 936.269531 835.847656 937.285156 C 836.476562 938.296875 837.078125 939.328125 837.65625 940.371094 C 838.234375 941.414062 838.785156 942.46875 839.308594 943.539062 C 839.835938 944.609375 840.332031 945.691406 840.804688 946.785156 C 841.277344 947.882812 841.722656 948.988281 842.140625 950.101562 C 842.558594 951.21875 842.949219 952.34375 843.308594 953.480469 C 843.671875 954.617188 844.007812 955.761719 844.3125 956.914062 C 844.621094 958.066406 844.898438 959.222656 845.148438 960.390625 C 845.398438 961.554688 845.617188 962.726562 845.808594 963.902344 Z M 845.808594 963.902344 " fill-opacity="1" fill-rule="nonzero"/></g></g></g><g clip-path="url(#4542c4ee02)"><g clip-path="url(#60cd3afacc)"><g clip-path="url(#0df4ccbf77)"><path fill="#ffffff" d="M 784.484375 439.992188 C 787.363281 440.035156 790.238281 440.097656 793.117188 440.175781 C 921.722656 443.769531 1037.421875 484.921875 1110.550781 553.082031 C 1111.058594 553.554688 1111.515625 554.070312 1111.917969 554.632812 C 1112.324219 555.195312 1112.667969 555.789062 1112.957031 556.421875 C 1113.242188 557.050781 1113.464844 557.703125 1113.625 558.375 C 1113.78125 559.050781 1113.875 559.734375 1113.898438 560.425781 C 1113.921875 561.117188 1113.878906 561.804688 1113.769531 562.488281 C 1113.65625 563.171875 1113.480469 563.835938 1113.238281 564.484375 C 1112.996094 565.132812 1112.691406 565.75 1112.328125 566.339844 C 1111.960938 566.929688 1111.542969 567.476562 1111.070312 567.984375 C 1110.601562 568.488281 1110.082031 568.945312 1109.519531 569.347656 C 1108.960938 569.753906 1108.363281 570.097656 1107.734375 570.386719 C 1107.101562 570.671875 1106.453125 570.894531 1105.777344 571.054688 C 1105.105469 571.214844 1104.421875 571.304688 1103.730469 571.328125 C 1103.039062 571.351562 1102.347656 571.308594 1101.667969 571.199219 C 1100.984375 571.085938 1100.316406 570.910156 1099.667969 570.667969 C 1099.019531 570.425781 1098.402344 570.121094 1097.8125 569.757812 C 1097.222656 569.394531 1096.675781 568.972656 1096.171875 568.503906 C 1026.742188 503.792969 916.066406 464.699219 792.527344 461.25 C 761.886719 460.375 731.339844 461.679688 700.886719 465.15625 C 670.433594 468.636719 640.378906 474.257812 610.726562 482.015625 C 548.761719 498.25 492.15625 523.101562 442.484375 555.863281 C 441.90625 556.242188 441.296875 556.558594 440.65625 556.820312 C 440.015625 557.078125 439.355469 557.273438 438.675781 557.402344 C 437.996094 557.535156 437.3125 557.597656 436.621094 557.589844 C 435.929688 557.585938 435.246094 557.515625 434.570312 557.375 C 433.890625 557.234375 433.234375 557.03125 432.597656 556.761719 C 431.960938 556.492188 431.355469 556.164062 430.785156 555.777344 C 430.210938 555.390625 429.683594 554.949219 429.199219 554.457031 C 428.710938 553.964844 428.28125 553.429688 427.898438 552.855469 C 427.519531 552.277344 427.199219 551.667969 426.9375 551.027344 C 426.675781 550.386719 426.480469 549.730469 426.347656 549.050781 C 426.21875 548.371094 426.152344 547.6875 426.15625 546.996094 C 426.160156 546.304688 426.230469 545.621094 426.371094 544.941406 C 426.507812 544.265625 426.710938 543.609375 426.980469 542.972656 C 427.246094 542.332031 427.574219 541.726562 427.960938 541.15625 C 428.347656 540.582031 428.785156 540.050781 429.277344 539.566406 C 429.765625 539.078125 430.300781 538.644531 430.875 538.261719 C 482.472656 504.234375 541.1875 478.449219 605.375 461.625 C 634.597656 453.976562 664.203125 448.339844 694.195312 444.71875 C 724.183594 441.097656 754.28125 439.519531 784.484375 439.992188 Z M 784.484375 439.992188 " fill-opacity="1" fill-rule="nonzero"/></g></g></g><g transform="matrix(1, 0, 0, 1, 570, 364)"><g clip-path="url(#b602dd1b92)"><g fill="#ffffff" fill-opacity="1"><g transform="translate(7.260581, 462.837076)"><g><path d="M 195.96875 -92.703125 C 196.363281 -63.671875 186.390625 -40.570312 166.046875 -23.40625 C 145.710938 -6.25 117.960938 2.566406 82.796875 3.046875 C 52.097656 3.460938 27.28125 -2.453125 8.34375 -14.703125 L 7.578125 -71.8125 C 34.597656 -57.175781 59.566406 -50.015625 82.484375 -50.328125 C 98.046875 -50.535156 110.164062 -53.648438 118.84375 -59.671875 C 127.519531 -65.703125 131.789062 -73.851562 131.65625 -84.125 C 131.570312 -90.09375 130.5625 -95.320312 128.625 -99.8125 C 126.6875 -104.3125 123.953125 -108.484375 120.421875 -112.328125 C 116.898438 -116.171875 108.191406 -123.140625 94.296875 -133.234375 C 74.941406 -146.734375 61.28125 -160.171875 53.3125 -173.546875 C 45.351562 -186.921875 41.265625 -201.390625 41.046875 -216.953125 C 40.804688 -234.867188 44.894531 -250.941406 53.3125 -265.171875 C 61.738281 -279.398438 73.851562 -290.546875 89.65625 -298.609375 C 105.457031 -306.671875 123.710938 -310.84375 144.421875 -311.125 C 174.578125 -311.53125 202.253906 -305.023438 227.453125 -291.609375 L 205.40625 -242.734375 C 183.582031 -252.722656 163.5 -257.59375 145.15625 -257.34375 C 133.625 -257.1875 124.21875 -253.929688 116.9375 -247.578125 C 109.65625 -241.222656 106.082031 -232.90625 106.21875 -222.625 C 106.332031 -214.15625 108.722656 -206.789062 113.390625 -200.53125 C 118.066406 -194.269531 128.46875 -186.035156 144.59375 -175.828125 C 161.5625 -164.929688 174.304688 -152.832031 182.828125 -139.53125 C 191.347656 -126.238281 195.726562 -110.628906 195.96875 -92.703125 Z M 195.96875 -92.703125 "/></g></g><g transform="translate(233.418487, 459.771296)"><g><path d="M 106.5 -47.9375 C 115.539062 -48.0625 126.765625 -50.644531 140.171875 -55.6875 L 140.8125 -8.78125 C 125.488281 -1.207031 107.054688 2.722656 85.515625 3.015625 C 64.679688 3.296875 49.304688 -0.875 39.390625 -9.5 C 29.472656 -18.125 24.390625 -31.609375 24.140625 -49.953125 C 24.046875 -56.898438 24.773438 -64.691406 26.328125 -73.328125 L 48.765625 -185.984375 L 17.078125 -185.5625 L 22.71875 -216.296875 L 63.34375 -234.34375 L 90.171875 -283.921875 L 130.609375 -284.46875 L 121.0625 -234.71875 L 180.0625 -235.515625 L 170.28125 -187.640625 L 111.5 -186.84375 L 89.046875 -74.171875 C 88.265625 -69.992188 87.894531 -66.304688 87.9375 -63.109375 C 88.082031 -52.828125 94.269531 -47.769531 106.5 -47.9375 Z M 106.5 -47.9375 "/></g></g></g></g></g></svg>